<svg xmlns="http://www.w3.org/2000/svg" viewBox="15511.659 718.903 38.834 24.306"><defs><style>.a{fill:#262626;}</style></defs><g transform="translate(15511.659 718.903)"><g transform="translate(0 0)"><path class="a" d="M15.981,10.97a5.737,5.737,0,0,0,1.833-1.337,5.219,5.219,0,0,0,1.1-3.494,5.974,5.974,0,0,0-1.1-3.6A7.4,7.4,0,0,0,11.6.014H0V23.738H10.784a16.866,16.866,0,0,0,3.386-.324,6.664,6.664,0,0,0,2.717-1.186,6.47,6.47,0,0,0,1.7-1.855A6.837,6.837,0,0,0,19.669,16.6a6.211,6.211,0,0,0-.927-3.472A5.37,5.37,0,0,0,15.981,10.97ZM4.788,4.133h5.219A9.209,9.209,0,0,1,12.94,4.5a2.157,2.157,0,0,1,1.294,2.157,2.157,2.157,0,0,1-.971,2.157,4.874,4.874,0,0,1-2.545.582H4.788ZM12.94,19.166a5.758,5.758,0,0,1-2.437.41H4.788V13.256h6a6.125,6.125,0,0,1,2.394.41,2.545,2.545,0,0,1,1.531,2.545,2.976,2.976,0,0,1-1.769,2.955Z" transform="translate(0 0.012)"/><rect class="a" width="10.288" height="2.955" transform="translate(24.802 1.126)"/><path class="a" d="M25.884,6.073a7.139,7.139,0,0,0-3.063-2.631,10.2,10.2,0,0,0-4.162-.82,8.627,8.627,0,0,0-6.3,2.48,9.425,9.425,0,0,0-2.5,6.966,8.411,8.411,0,0,0,2.717,7.009,9.727,9.727,0,0,0,6.255,2.157A8.627,8.627,0,0,0,25.5,18.689a5.737,5.737,0,0,0,1.725-3.17H22.477a3.817,3.817,0,0,1-.949,1.208,3.968,3.968,0,0,1-2.567.8,4.745,4.745,0,0,1-2.567-.669,4.184,4.184,0,0,1-1.876-3.688h12.94A22.214,22.214,0,0,0,27.308,9.7a8.454,8.454,0,0,0-1.423-3.623ZM14.648,10.149a4.723,4.723,0,0,1,1.229-2.717,3.71,3.71,0,0,1,2.761-.992,4.119,4.119,0,0,1,2.761.949,3.817,3.817,0,0,1,1.229,2.761Z" transform="translate(11.362 3.055)"/></g></g></svg>