<svg xmlns="http://www.w3.org/2000/svg" viewBox="15402.855 712.764 35.085 34.955"><defs><style>.a{fill:#262626;}</style></defs><g transform="translate(15402.856 712.764)"><g transform="translate(0 0)"><path class="a" d="M33.708,10.653a17.323,17.323,0,0,0-1.623-2.894,17.571,17.571,0,0,0-31.732,6.2A17.6,17.6,0,0,0,2.993,27.311a17.6,17.6,0,0,0,4.829,4.712,17.6,17.6,0,0,0,2.972,1.623,17.284,17.284,0,0,0,3.3,1.017,17.6,17.6,0,0,0,7.058,0,17.283,17.283,0,0,0,3.3-1.017,17.479,17.479,0,0,0,2.913-1.623,17.548,17.548,0,0,0,6.335-21.35ZM17.6,2.5a14.918,14.918,0,0,1,9.776,3.734,16.326,16.326,0,0,1-7.821,5.435A76.114,76.114,0,0,0,14.02,2.93,14.976,14.976,0,0,1,17.6,2.5ZM14,2.93Zm-2.855.919a89.605,89.605,0,0,1,5.572,8.72A55.429,55.429,0,0,1,2.895,14.407,14.976,14.976,0,0,1,11.146,3.849ZM6.394,27.311a14.918,14.918,0,0,1-3.832-9.776v-.469a54.92,54.92,0,0,0,15.387-2.19c.43.841.841,1.7,1.212,2.542l-.587.117A23.7,23.7,0,0,0,6.394,27.428Zm11.2,5.162a14.918,14.918,0,0,1-9.4-3.206L8,29.109l.2.156.137.117a20.294,20.294,0,0,1,11.731-9.365h.1a62.33,62.33,0,0,1,3.3,11.2A14.937,14.937,0,0,1,17.6,32.472Zm8.368-2.561a64.734,64.734,0,0,0-2.913-10.695,21.722,21.722,0,0,1,9.346.645,14.976,14.976,0,0,1-6.491,10.049Zm-3.91-13.06-.332-.763q-.469-1.114-1-2.17a19.278,19.278,0,0,0,8.348-5.865,14.918,14.918,0,0,1,3.441,9.287,34.645,34.645,0,0,0-10.421-.508Z" transform="translate(0.001 -0.064)"/></g></g></svg>