<svg id="23a6c3a4-c77b-47c5-a45f-0323a5f0c56c" data-name="Layer 1" xmlns="http://www.w3.org/2000/svg" viewBox="0 0 100 100">
  <title>FacebookSVG</title>
  <path id="5c0f623c-a2aa-453e-8a33-b95902b6c0ac" data-name="Facebook" d="M86.4165,82.26051a3.97,3.97,0,0,1-3.958,3.958h-18.6v-28.1h9.5l1.385-10.885h-10.889v-6.927c0-3.167.792-5.344,5.344-5.344h5.74v-9.9a64.82292,64.82292,0,0,0-8.51-.4c-8.312,0-14.052,5.146-14.052,14.448v8.115h-9.5v10.885h9.5v28.1H17.5415a3.97,3.97,0,0,1-3.958-3.958v-64.513a3.97,3.97,0,0,1,3.958-3.958h64.719a3.97,3.97,0,0,1,3.958,3.958v64.521Z" style="fill: #fff"/>
</svg>
