<svg id="a8a99b97-0e26-4ba8-8bce-910355df67d7" data-name="Layer 1" xmlns="http://www.w3.org/2000/svg" viewBox="0 0 100 100">
  <title>GithubSVG</title>
  <g id="cef14216-4591-40ba-a201-16b2a39349b9" data-name="github">
    <g id="4ae191f2-551b-4494-bc82-75ff9163ada3" data-name="Layer 1">
      <path id="1d5b7dba-a662-48a6-8d83-3daf0ac52390" data-name="Path 92" d="M50.153,16A37.174,37.174,0,0,0,38.387,88.428c1.877.334,2.545-.793,2.545-1.794v-6.3c-10.347,2.253-12.516-4.965-12.516-4.965a9.846,9.846,0,0,0-4.172-5.424c-3.379-2.295.25-2.253.25-2.253a7.8,7.8,0,0,1,5.674,3.838,7.927,7.927,0,0,0,10.8317,2.88946L41.016,74.41a7.927,7.927,0,0,1,2.379-4.965c-8.344-.918-16.939-4.172-16.939-18.357a14.352,14.352,0,0,1,3.839-9.972,13.351,13.351,0,0,1,.375-9.846s3.129-1,10.222,3.8a35.213,35.213,0,0,1,18.608,0c7.093-4.8,10.222-3.8,10.222-3.8a13.351,13.351,0,0,1,.375,9.846,14.352,14.352,0,0,1,3.838,9.971c0,14.269-8.678,17.4-16.981,18.357a8.887,8.887,0,0,1,2.5,6.884v10.18c0,1.21.668,2.17,2.545,1.794A37.174,37.174,0,0,0,50.153,16Z" style="fill: #fff"/>
    </g>
  </g>
</svg>
