<svg xmlns="http://www.w3.org/2000/svg" viewBox="15616.009 709.254 43.758 42.849"><defs><style>.a{fill:#262626;fill-rule:evenodd;}</style></defs><g transform="translate(15616.009 709.254)"><g transform="translate(0 0)"><path class="a" d="M21.967,0a21.974,21.974,0,0,0-6.955,42.814c1.11.2,1.5-.469,1.5-1.06V38.03c-6.116,1.332-7.4-2.935-7.4-2.935a5.82,5.82,0,0,0-2.466-3.206c-2-1.356.148-1.332.148-1.332a4.612,4.612,0,0,1,3.354,2.269,4.686,4.686,0,0,0,6.412,1.7,4.686,4.686,0,0,1,1.406-2.935C13.039,31.05,7.959,29.126,7.959,20.741a8.484,8.484,0,0,1,2.269-5.894,7.892,7.892,0,0,1,.222-5.82s1.85-.592,6.042,2.244a20.815,20.815,0,0,1,11,0c4.193-2.836,6.042-2.244,6.042-2.244a7.892,7.892,0,0,1,.222,5.82,8.484,8.484,0,0,1,2.269,5.894c0,8.435-5.13,10.284-10.038,10.851a5.253,5.253,0,0,1,1.48,4.069V41.68c0,.715.395,1.282,1.5,1.06a21.974,21.974,0,0,0-7-42.74Z" transform="translate(-0.005)"/></g></g></svg>