<svg id="c0a0745d-25c6-4ceb-8d9b-b0c03f80dfde" data-name="Layer 1" xmlns="http://www.w3.org/2000/svg" viewBox="0 0 72.833 72.437">
  <title>Instagram_SVG</title>
  <g>
    <path d="M36.6,7.00592c9.55725,0,10.68927.03645,14.46355.20865A19.80565,19.80565,0,0,1,57.70989,8.447a11.08983,11.08983,0,0,1,4.11555,2.67747,11.0898,11.0898,0,0,1,2.67752,4.1156,19.80549,19.80549,0,0,1,1.23247,6.64629c.1722,3.77433.20865,4.90636.20865,14.4636s-.03645,10.68927-.20865,14.46355A19.80565,19.80565,0,0,1,64.503,57.45989,11.85346,11.85346,0,0,1,57.70989,64.253a19.80565,19.80565,0,0,1-6.64634,1.23247c-3.77374.1722-4.90566.20865-14.46355.20865s-10.68981-.03645-14.46355-.20865A19.80558,19.80558,0,0,1,15.49011,64.253a11.0897,11.0897,0,0,1-4.11555-2.67747A11.09,11.09,0,0,1,8.697,57.45989,19.80558,19.80558,0,0,1,7.46456,50.8136c-.1722-3.77433-.20865-4.90635-.20865-14.4636s.03645-10.68927.20865-14.46355A19.80558,19.80558,0,0,1,8.697,15.24011a11.08975,11.08975,0,0,1,2.67747-4.11555A11.08985,11.08985,0,0,1,15.49011,8.447,19.80549,19.80549,0,0,1,22.1364,7.21456c3.77433-.1722,4.90636-.20865,14.4636-.20865m0-6.44925c-9.7209,0-10.93981.04117-14.75753.21535A26.272,26.272,0,0,0,13.154,2.43577,17.54534,17.54534,0,0,0,6.81422,6.56422,17.54534,17.54534,0,0,0,2.68577,12.904,26.272,26.272,0,0,0,1.022,21.59247C.84784,25.41019.80667,26.62907.80667,36.35S.84784,47.28981,1.022,51.10753A26.272,26.272,0,0,0,2.68577,59.796a17.54551,17.54551,0,0,0,4.12845,6.33974A17.54516,17.54516,0,0,0,13.154,70.26423,26.27179,26.27179,0,0,0,21.84247,71.928c3.81772.17421,5.03663.21536,14.75753.21536s10.93981-.04114,14.75753-.21536A26.27177,26.27177,0,0,0,60.046,70.26423,18.30253,18.30253,0,0,0,70.51423,59.796,26.27177,26.27177,0,0,0,72.178,51.10753c.17418-3.81772.21536-5.03663.21536-14.75753s-.04117-10.93981-.21536-14.75753A26.27179,26.27179,0,0,0,70.51423,12.904a17.54516,17.54516,0,0,0-4.12845-6.33974A17.54531,17.54531,0,0,0,60.046,2.43577,26.272,26.272,0,0,0,51.35753.772C47.53981.59784,46.3209.55667,36.6.55667Z" style="fill: #fff"/>
    <path d="M36.6,17.96964A18.38036,18.38036,0,1,0,54.98036,36.35,18.38036,18.38036,0,0,0,36.6,17.96964Zm0,30.31146A11.93111,11.93111,0,1,1,48.53111,36.35,11.93111,11.93111,0,0,1,36.6,48.2811Z" style="fill: #fff"/>
    <circle cx="55.70657" cy="17.24343" r="4.2952" style="fill: #fff"/>
  </g>
</svg>
