<svg id="Layer_1" data-name="Layer 1" xmlns="http://www.w3.org/2000/svg" width="220" height="220" viewBox="0 0 220 220">
  <title>Artboard 1 copy</title>
  <g id="Dhad">
    <polyline points="28.13 116.92 36.62 130.67 49.38 106.92 87.04 111.08 69.21 133.75 90.54 136.58 79.88 156.58 106.21 158.58 120.88 191.58 79.54 170.92 87.88 191.58 69.21 185.92 64.71 195.25" fill="none" stroke="#231f20" stroke-linejoin="bevel" stroke-width="0.6"/>
    <polyline points="144.04 191.58 120.88 191.58 79.88 156.58" fill="none" stroke="#231f20" stroke-linejoin="bevel" stroke-width="0.6"/>
    <polyline points="49.38 123.7 87.04 111.08 67.63 99.42" fill="none" stroke="#231f20" stroke-linejoin="bevel" stroke-width="0.6"/>
    <polyline points="97.58 56.52 87.04 111.08 79.54 86.92" fill="none" stroke="#231f20" stroke-linejoin="bevel" stroke-width="0.6"/>
    <polygon points="28.13 148.67 28.13 116.92 49.38 106.92 67.63 99.42 79.54 86.92 97.58 56.52 103.21 27.92 108.88 39.25 90.54 92.25 87.04 111.08 90.54 136.58 106.21 158.58 144.04 191.58 153.83 211.83 120.88 191.58 87.88 191.58 64.71 195.25 50.54 184.75 69.21 185.92 79.54 170.92 79.88 156.58 69.21 133.75 49.38 123.7 38.12 127.47 28.13 148.67" fill="none" stroke="#231f20" stroke-linejoin="bevel" stroke-width="0.6"/>
  </g>
  <g id="Saanp">
    <polyline points="154.21 49.93 163.54 72.08 130.71 61.92 134.21 90.75 108.88 70.58 118.38 108.75 96.04 95.75 115.13 119.75 97.58 122.42 115.13 136.58 115.13 155.25" fill="none" stroke="#231f20" stroke-linejoin="bevel" stroke-width="0.6"/>
    <polyline points="166.13 20.42 172.38 16.92 166.13 36.04 180.88 44" fill="none" stroke="#231f20" stroke-linejoin="bevel" stroke-width="0.6"/>
    <line x1="166.13" y1="36.04" x2="163.54" y2="72.08" fill="none" stroke="#231f20" stroke-linejoin="bevel" stroke-width="0.6"/>
    <polygon points="159.83 8.17 166.13 20.42 166.13 36.04 154.21 49.93 130.71 61.92 108.88 70.58 96.04 95.75 97.58 122.42 115.13 155.25 121.54 158.58 115.13 136.58 115.13 119.75 118.38 108.75 134.21 90.75 163.54 72.08 180.88 44 172.38 16.92 159.83 8.17" fill="none" stroke="#231f20" stroke-linejoin="bevel" stroke-width="0.6"/>
  </g>
  <g id="Panchi">
    <polyline points="119.88 28.75 112.96 31.5 123.79 43.33 109.46 60.92" fill="none" stroke="#231f20" stroke-linejoin="bevel" stroke-width="0.6"/>
    <polyline points="138.04 40.42 142.04 47.58 123.79 43.33" fill="none" stroke="#231f20" stroke-linejoin="bevel" stroke-width="0.6"/>
    <polygon points="108.88 23.17 119.88 28.75 123.79 43.33 138.04 40.42 157.04 36.67 142.04 47.58 109.46 60.92 112.96 31.5 108.88 23.17" fill="none" stroke="#231f20" stroke-linejoin="bevel" stroke-width="0.6"/>
  </g>
  <g id="Sar">
    <polygon points="52.88 70.58 70.04 84.58 51.04 93.42 52.88 70.58" fill="none" stroke="#231f20" stroke-linejoin="bevel" stroke-width="0.6"/>
    <polygon points="52.88 70.58 63.71 70.58 70.04 84.58 61.96 94.17 51.04 93.42 45.04 82.08 52.88 70.58" fill="none" stroke="#231f20" stroke-linejoin="bevel" stroke-width="0.6"/>
  </g>
  <g id="F">
    <polyline points="126.13 111.08 132.92 113.92 118.38 136.58 134.21 132.79 138.04 170.92 152.1 158.58 140.89 142.42 154.21 134.67 144.04 130.67" fill="none" stroke="#231f20" stroke-linejoin="bevel" stroke-width="0.6"/>
    <polygon points="142.04 93.42 126.13 111.08 118.38 136.58 138.04 170.92 163.54 190 152.1 158.58 154.21 134.67 160.17 117.19 144.04 130.67 140.89 142.42 134.21 132.79 132.92 113.92 142.04 93.42" fill="none" stroke="#231f20" stroke-linejoin="bevel" stroke-width="0.6"/>
  </g>
  <g id="Music">
    <polyline points="191.88 40.42 169.63 105.33 149.88 103.17 151.38 111.67" fill="none" stroke="#231f20" stroke-linejoin="bevel" stroke-width="0.6"/>
    <polyline points="149.88 103.17 142.79 121.17 138.04 114.75" fill="none" stroke="#231f20" stroke-linejoin="bevel" stroke-width="0.6"/>
    <line x1="135.63" y1="124.25" x2="142.79" y2="121.17" fill="none" stroke="#231f20" stroke-linejoin="bevel" stroke-width="0.6"/>
    <polyline points="183.91 53.93 169.63 105.33 167.96 95.75" fill="none" stroke="#231f20" stroke-linejoin="bevel" stroke-width="0.6"/>
    <polyline points="174.68 84.37 171.71 74.17 154.21 93.42 149.29 88.17" fill="none" stroke="#231f20" stroke-linejoin="bevel" stroke-width="0.6"/>
    <polyline points="169.63 105.33 170.13 133.17 160.17 145.67" fill="none" stroke="#231f20" stroke-linejoin="bevel" stroke-width="0.6"/>
    <polygon points="166.13 147.58 189.13 170.92 164.71 166.17 166.13 147.58" fill="none" stroke="#231f20" stroke-linejoin="bevel" stroke-width="0.6"/>
    <polygon points="175.09 85.79 174.68 84.37 154.21 93.42 144.63 101.67 149.29 88.17 171.71 74.17 183.91 53.93 188.29 38.08 191.88 40.42 170.13 133.17 166.13 147.58 184.13 155.42 189.13 170.92 174.63 175.08 164.71 166.17 160.17 145.67 169.63 105.33 151.38 111.67 142.79 121.17 138.04 130.92 135.63 124.25 138.04 114.75 149.88 103.17 167.96 95.75 175.09 85.79" fill="none" stroke="#231f20" stroke-linejoin="bevel" stroke-width="0.6"/>
  </g>
</svg>
