<svg id="faa12517-6556-4f46-b696-81d3bc944326" data-name="Layer 1" xmlns="http://www.w3.org/2000/svg" viewBox="0 0 300 300">
  <title>LeCCD</title>
  <polygon points="12.032 82.701 10.921 201.876 27.588 100.48 12.032 82.701" style="fill: #fc0c84"/>
  <polygon points="12.032 82.701 52.729 104.369 27.588 100.48 12.032 82.701" style="fill: #fa71cd"/>
  <polygon points="10.921 201.876 48.006 194.931 61.202 212.154 10.921 201.876" style="fill: #fc0c84"/>
  <polygon points="52.729 104.369 48.006 194.931 61.202 212.154 52.729 104.369" style="fill: #fa71cd"/>
  <polygon points="14.027 182.975 31.05 198.11 10.921 201.876 14.027 182.975" style="fill: #fa71cd"/>
  <polygon points="212.097 90.341 214.178 199.945 197.529 211.275 212.097 90.341" style="fill: #eaaa44"/>
  <polygon points="212.097 90.341 191.98 165.954 197.529 211.275 212.097 90.341" style="fill: #f5c571"/>
  <polygon points="73.673 118.689 90.315 213.682 67.721 190.902 73.673 118.689" style="fill: #00f5b2"/>
  <polygon points="73.673 118.689 112.724 120.898 107.194 133.875 73.673 118.689" style="fill: #00f5b2"/>
  <polygon points="78.047 143.688 107.194 133.875 73.673 118.689 78.047 143.688" style="fill: #05e082"/>
  <polygon points="112.724 120.898 102.723 179.605 94.389 163.863 112.724 120.898" style="fill: #05e082"/>
  <polygon points="82.629 171.132 94.389 163.863 102.723 179.605 82.629 171.132" style="fill: #00f5b2"/>
  <polygon points="112.724 120.898 114.668 212.293 102.723 179.605 112.724 120.898" style="fill: #00f5b2"/>
  <polygon points="172.928 109.04 174.994 130.328 162.689 120.447 172.928 109.04" style="fill: #39cef7"/>
  <polygon points="123.527 119.549 172.928 109.04 162.689 120.447 123.527 119.549" style="fill: #1a85ff"/>
  <polygon points="123.527 119.549 174.994 130.328 162.689 120.447 123.527 119.549" style="fill: #1dc5ff"/>
  <polygon points="123.527 119.549 126.222 179.19 143.916 159.609 123.527 119.549" style="fill: #1a85ff"/>
  <polygon points="126.222 179.19 175.174 163.202 143.916 159.609 126.222 179.19" style="fill: #1dc5ff"/>
  <polygon points="175.174 163.202 183.258 210.627 154.796 169.86 175.174 163.202" style="fill: #1a85ff"/>
  <polygon points="129.545 202.454 172.704 195.47 183.258 210.627 129.545 202.454" style="fill: #1dc5ff"/>
  <polygon points="129.545 202.454 134.126 217.274 183.258 210.627 129.545 202.454" style="fill: #1a85ff"/>
  <polygon points="278.681 108.337 280.76 129.768 268.372 119.821 278.681 108.337" style="fill: #c989f7"/>
  <polygon points="228.947 118.916 278.681 108.337 268.372 119.821 228.947 118.916" style="fill: #8401ff"/>
  <polygon points="228.947 118.916 280.76 129.768 268.372 119.821 228.947 118.916" style="fill: #c471f5"/>
  <polygon points="228.947 118.916 231.659 178.959 249.473 159.246 228.947 118.916" style="fill: #8401ff"/>
  <polygon points="231.659 178.959 280.941 162.863 249.473 159.246 231.659 178.959" style="fill: #c471f5"/>
  <polygon points="280.941 162.863 289.079 210.608 260.426 169.566 280.941 162.863" style="fill: #8401ff"/>
  <polygon points="235.005 202.379 278.454 195.348 289.079 210.608 235.005 202.379" style="fill: #c471f5"/>
  <polygon points="235.005 202.379 239.617 217.299 289.079 210.608 235.005 202.379" style="fill: #8401ff"/>
  <polygon points="107.194 133.875 82.629 171.132 94.389 163.863 107.194 133.875" style="fill: none"/>
  <polygon points="107.194 133.875 78.047 143.688 80.417 157.083 107.194 133.875" style="fill: none"/>
  <polygon points="107.194 133.875 80.417 157.083 82.629 171.132 107.194 133.875" style="fill: none"/>
  <polygon points="82.629 171.132 102.723 179.605 85.375 186.375 82.629 171.132" style="fill: none"/>
  <polygon points="102.723 179.605 87.563 198.125 85.375 186.375 102.723 179.605" style="fill: none"/>
  <polygon points="102.723 179.605 108.812 196.438 87.563 198.125 102.723 179.605" style="fill: none"/>
  <polygon points="87.563 198.125 114.668 212.293 108.812 196.438 87.563 198.125" style="fill: none"/>
  <polygon points="87.563 198.125 90.315 213.682 114.668 212.293 87.563 198.125" style="fill: none"/>
  <polygon points="174.994 130.328 123.527 119.549 131.875 136.125 174.994 130.328" style="fill: none"/>
  <polygon points="174.994 130.328 136.583 145.333 131.875 136.125 174.994 130.328" style="fill: none"/>
  <polygon points="174.994 130.328 143.916 159.609 136.583 145.333 174.994 130.328" style="fill: none"/>
  <polygon points="175.174 163.202 174.994 130.328 162.375 161.875 175.174 163.202" style="fill: none"/>
  <polygon points="174.994 130.328 143.916 159.609 162.375 161.875 174.994 130.328" style="fill: none"/>
  <polygon points="126.222 179.19 154.796 169.86 145.167 184.667 126.222 179.19" style="fill: none"/>
  <polygon points="154.796 169.86 172.704 195.47 145.167 184.667 154.796 169.86" style="fill: none"/>
  <polygon points="145.167 184.667 152.333 198.75 172.704 195.47 145.167 184.667" style="fill: none"/>
  <polygon points="126.222 179.19 152.333 198.75 145.167 184.667 126.222 179.19" style="fill: none"/>
  <polygon points="126.222 179.19 138.5 201 152.333 198.75 126.222 179.19" style="fill: none"/>
  <polygon points="126.222 179.19 129.545 202.454 138.5 201 126.222 179.19" style="fill: none"/>
  <polygon points="280.76 129.768 236.333 133.5 228.947 118.916 280.76 129.768" style="fill: none"/>
  <polygon points="280.76 129.768 241.667 143.833 236.333 133.5 280.76 129.768" style="fill: none"/>
  <polygon points="280.76 129.768 249.473 159.246 241.667 143.833 280.76 129.768" style="fill: none"/>
  <polygon points="280.76 129.768 267.5 161.333 249.473 159.246 280.76 129.768" style="fill: none"/>
  <polygon points="280.76 129.768 280.941 162.863 267.5 161.333 280.76 129.768" style="fill: none"/>
  <polygon points="260.426 169.566 256.5 182.875 278.454 195.348 260.426 169.566" style="fill: none"/>
  <polygon points="231.659 178.959 256.5 182.875 262.75 197.875 231.659 178.959" style="fill: none"/>
  <polygon points="278.454 195.348 262.75 197.875 256.5 182.875 278.454 195.348" style="fill: none"/>
  <polygon points="231.659 178.959 249.75 200 262.75 197.875 231.659 178.959" style="fill: none"/>
  <polygon points="231.659 178.959 235.005 202.379 249.75 200 231.659 178.959" style="fill: none"/>
  <polygon points="191.98 165.954 191.5 92.5 212.097 90.341 191.98 165.954" style="fill: none"/>
  <polygon points="191.98 165.954 195.333 210.5 197.529 211.275 191.98 165.954" style="fill: none"/>
  <polygon points="197.529 211.275 214.75 208.833 214.178 199.945 197.529 211.275" style="fill: none"/>
  <polygon points="27.588 100.48 52 117.875 52.729 104.369 27.588 100.48" style="fill: none"/>
  <polygon points="27.54 100.475 23.702 124.12 51.952 117.87 27.54 100.475" style="fill: none"/>
  <polygon points="23.702 124.12 50.077 155.495 51.952 117.87 23.702 124.12" style="fill: none"/>
  <polygon points="23.702 124.12 17.556 161.518 50.077 155.495 23.702 124.12" style="fill: none"/>
  <polygon points="17.556 161.518 48.006 194.931 50.125 155.5 17.556 161.518" style="fill: none"/>
  <polygon points="17.556 161.518 31.05 198.11 14.027 182.975 17.556 161.518" style="fill: none"/>
  <polygon points="17.556 161.518 48.006 194.931 31.05 198.11 17.556 161.518" style="fill: none"/>
  <polygon points="12.032 82.701 50.167 90.833 52.729 104.369 12.032 82.701" style="fill: none"/>
  <polygon points="231.659 178.959 260.426 169.566 256.5 182.875 231.659 178.959" style="fill: none"/>
</svg>
