<svg xmlns="http://www.w3.org/2000/svg" viewBox="0 0 300 300">
  <title>Artboard 4</title>
  <g id="73400b43-38c8-4367-9486-1d9a63e30cc6" data-name="Layer 1">
    <g>
      <g>
        <polygon points="224.318 86.215 205.822 158.541 210.572 201.504 224.318 86.215" style="fill: #9d073d"/>
        <polygon points="224.318 86.215 226.834 190.853 210.572 201.504 224.318 86.215" style="fill: #c9073f"/>
      </g>
      <polygon points="285.284 96.408 287.227 115.839 276.433 107.203 285.284 96.408" style="fill: #ea0756"/>
      <polygon points="285.284 96.408 239.73 106.124 276.433 107.203 285.284 96.408" style="fill: #f80647"/>
      <polygon points="242.537 160.098 258.297 143.906 239.73 106.124 242.537 160.098" style="fill: #c10327"/>
      <polygon points="242.537 160.098 287.227 146.065 258.297 143.906 242.537 160.098" style="fill: #c8214b"/>
      <polygon points="287.227 146.065 268.32 152.002 295 190.324 287.227 146.065" style="fill: #86072f"/>
      <polygon points="295 190.324 245.991 182.767 249.014 195.721 295 190.324" style="fill: #80062d"/>
      <polygon points="295 190.324 245.991 182.767 284.944 175.88 295 190.324" style="fill: #b5063b"/>
      <polygon points="239.73 106.124 276.433 107.203 287.227 115.839 239.73 106.124" style="fill: #b20530"/>
      <polygon points="190.833 100.141 192.776 119.572 181.981 110.936 190.833 100.141" style="fill: #ea0756"/>
      <polygon points="190.833 100.141 145.278 109.856 181.981 110.936 190.833 100.141" style="fill: #f80647"/>
      <polygon points="148.085 163.83 163.845 147.638 145.278 109.856 148.085 163.83" style="fill: #c10327"/>
      <polygon points="148.085 163.83 192.776 149.797 163.845 147.638 148.085 163.83" style="fill: #c8214b"/>
      <polygon points="192.776 149.797 173.868 155.734 200.548 194.056 192.776 149.797" style="fill: #86072f"/>
      <polygon points="200.548 194.056 151.539 186.499 154.562 199.453 200.548 194.056" style="fill: #80062d"/>
      <polygon points="200.548 194.056 151.539 186.499 190.492 179.613 200.548 194.056" style="fill: #b5063b"/>
      <polygon points="145.278 109.856 181.981 110.936 192.776 119.572 145.278 109.856" style="fill: #b20530"/>
      <polygon points="56.382 96.07 48.963 103.646 53.81 132.463 56.382 96.07" style="fill: #b20530"/>
      <polygon points="63.761 185.934 22.705 194.976 51.239 198.24 63.761 185.934" style="fill: #a2063a"/>
      <polyline points="127.595 100.727 133.855 187.302 117.331 213.785 133.855 187.302 127.595 100.727 117.331 213.785" style="fill: #c10327"/>
      <polygon points="83.264 120.144 121.045 115.479 80.673 97.992 83.264 120.144" style="fill: #b20530"/>
      <polyline points="127.595 100.727 121.045 115.479 124.034 139.944" style="fill: #f80647"/>
      <polyline points="124.034 139.944 87.675 156.771 89.301 170.424" style="fill: #a2063a"/>
      <polygon points="127.595 100.727 80.673 97.992 121.045 115.479 127.595 100.727" style="fill: #f80647"/>
      <polygon points="63.761 185.934 56.382 96.07 49.817 189.005 63.761 185.934" style="fill: #c10327"/>
      <polygon points="80.673 97.992 92.116 194.056 74.412 184.566 80.673 97.992" style="fill: #c10327"/>
      <polygon points="11.527 101.484 22.705 194.976 5 183.727 11.527 101.484" style="fill: #c10327"/>
      <polygon points="123.449 146.395 124.034 139.944 108.337 151.841 123.449 146.395" style="fill: #a2063a"/>
      <polygon points="49.817 189.005 20.81 179.613 22.705 194.976 49.817 189.005" style="fill: #b20530"/>
      <polygon points="11.527 101.484 56.382 96.07 48.963 103.646 11.527 101.484" style="fill: #f80647"/>
      <polygon points="11.527 101.484 16.476 114.267 16.539 143.4 11.527 101.484" style="fill: #a2063a"/>
      <polygon points="16.476 114.267 48.963 103.646 11.527 101.484 16.476 114.267" style="fill: #ea0756"/>
      <polygon points="124.034 139.944 87.675 156.769 88.847 166.613 124.034 139.944" style="fill: #a2063a"/>
      <polygon points="117.331 213.785 133.855 187.302 127.595 100.727 117.331 213.785" style="fill: #c10327"/>
    </g>
  </g>
</svg>
