<svg id="Layer_1" data-name="Layer 1" xmlns="http://www.w3.org/2000/svg" width="300" height="300" viewBox="0 0 300 300"><title>Artboard 1</title><polygon points="141.19 44.49 124.76 127.95 148.54 59.19 141.19 44.49" fill="#ea3e2d"/><polygon points="133.88 81.6 110.49 121.03 120.22 152.38 133.88 81.6" fill="#c12717"/><polygon points="43.79 201.13 54.49 177.78 43.79 159.94 43.79 201.13" fill="#e13217"/><polygon points="43.79 159.94 71.36 146.97 54.49 177.78 43.79 159.94" fill="#ea3e2d"/><polygon points="71.36 146.97 120.22 152.38 56.76 173.64 71.36 146.97" fill="#c12717"/><polygon points="71.36 146.97 95.03 137.24 120.22 152.38 71.36 146.97" fill="#ea3e2d"/><polygon points="95.03 137.24 110.49 121.03 120.22 152.38 95.03 137.24" fill="#e13217"/><polygon points="71.36 168.75 97.08 181.78 120.22 152.38 71.36 168.75" fill="#e13217"/><polygon points="120.22 152.38 124.76 185.46 97.08 181.78 120.22 152.38" fill="#e13217"/><polygon points="97.08 181.78 110.92 211.4 124.76 185.46 97.08 181.78" fill="#c12717"/><polygon points="124.76 185.46 145.08 214 110.92 211.4 124.76 185.46" fill="#e13217"/><polygon points="72.87 247.94 91.25 261.56 97.08 249.45 72.87 247.94" fill="#c12717"/><polygon points="91.25 261.56 121.31 256.81 97.08 249.45 91.25 261.56" fill="#ea3e2d"/><polygon points="203.24 282.1 194.16 256.81 164.11 256.81 203.24 282.1" fill="#c12717"/><polygon points="145.08 214 194.16 256.81 164.11 256.81 145.08 214" fill="#ea3e2d"/><polygon points="110.92 211.4 110.49 230 164.11 256.81 110.92 211.4" fill="#ea3e2d"/><polygon points="110.92 211.4 145.08 214 164.11 256.81 110.92 211.4" fill="#e13217"/><polygon points="110.49 230 97.08 249.45 121.3 256.81 110.49 230" fill="#e13217"/><polygon points="121.3 256.81 110.49 230 164.11 256.81 121.3 256.81" fill="#c12717"/><polygon points="75.9 99.84 65.73 114.76 73.52 129.46 75.9 99.84" fill="#c12717"/><polygon points="75.9 99.84 89.95 99.84 98.17 118 75.9 99.84" fill="#ea3e2d"/><polygon points="73.52 129.46 98.17 118 75.9 99.84 73.52 129.46" fill="#e13217"/><polygon points="73.52 129.46 87.68 130.43 98.17 118 73.52 129.46" fill="#ea3e2d"/><polygon points="148.54 38.33 153.84 49.14 162.81 45.57 148.54 38.33" fill="#fff039"/><polygon points="162.81 45.57 167.89 64.49 153.84 49.14 162.81 45.57" fill="#fcd700"/><polygon points="153.84 49.14 149.3 87.3 167.89 64.49 153.84 49.14" fill="#fff039"/><polygon points="149.3 87.3 191.56 70 167.89 64.49 149.3 87.3" fill="#fcd700"/><polygon points="167.89 64.49 186.38 60.71 191.56 70 167.89 64.49" fill="#fef200"/><polygon points="186.38 60.71 211.02 55.84 191.56 70 186.38 60.71" fill="#fcd700"/><polygon points="211.02 17.9 222.81 34.76 230.91 30.22 211.02 17.9" fill="#00aeef"/><polygon points="222.81 34.76 222.81 55.03 230.91 30.22 222.81 34.76" fill="#2d87c5"/><polygon points="230.91 30.22 241.94 65.36 219.46 101.79 222.81 55.03 230.91 30.22" fill="#00aeef"/><polygon points="222.85 54.89 207.35 73.05 219.46 101.79 222.85 54.89" fill="#49d2fc"/><polygon points="207.35 73.05 176.86 88.6 219.46 101.79 207.35 73.05" fill="#2d87c5"/><polygon points="176.86 88.6 181.4 126 219.46 101.79 176.86 88.6" fill="#00aeef"/><polygon points="176.86 88.6 148.54 99.84 181.4 126 176.86 88.6" fill="#2d87c5"/><polyline points="160.86 149.35 148.54 99.84 131.89 132.49 160.86 149.35" fill="#00aeef"/><polygon points="131.89 132.49 133.88 167.08 156.65 163.62 160.86 149.35 131.89 132.49" fill="#2d87c5"/><polygon points="133.88 167.08 156.65 209.67 164.97 214 156.65 185.46 156.65 163.62 133.88 167.08" fill="#00aeef"/><polygon points="191.56 129.46 179.73 156.05 170.92 152.38 191.56 129.46" fill="#f47a16"/><polygon points="170.92 152.38 160.86 185.46 181.4 180.54 179.73 156.05 170.92 152.38" fill="#ea770d"/><polygon points="215.08 160.31 194.16 177.78 207.35 182.97 215.08 160.31" fill="#ea770d"/><polygon points="207.35 182.97 204.62 214 189.73 194.32 194.16 177.78 207.35 182.97" fill="#f47a16"/><polygon points="160.86 185.46 186.38 230 181.4 180.54 160.86 185.46" fill="#f47a16"/><polygon points="181.4 180.54 204.62 214 186.38 230 181.4 180.54" fill="#ea770d"/><polygon points="204.62 214 219.46 254.75 186.38 230 204.62 214" fill="#f7872b"/><polygon points="222.81 199.73 246.16 209.89 252.64 230 222.81 199.73" fill="#37a84c"/><polygon points="222.81 199.73 220.97 223.83 233.83 235.4 252.64 230 222.81 199.73" fill="#3c3"/><polygon points="220.97 223.83 215.08 197.24 228 181.03 222.81 199.73 220.97 223.83" fill="#279637"/><polygon points="215.08 197.24 227.35 144.92 228 181.03 215.08 197.24" fill="#37a84c"/><polygon points="227.35 144.92 256.21 60.71 228 181.03 227.35 144.92" fill="#279637"/><polygon points="251.56 57.68 256.21 60.71 227.72 143.82 251.56 57.68" fill="#37a84c"/><polygon points="245.88 78.23 230.05 104.49 234.44 119.56 245.88 78.23" fill="#3c3"/><polygon points="230.05 104.49 200.97 122.65 194.92 140.16 207.35 129.46 233.9 117.72 230.05 104.49" fill="#37a84c"/><polygon points="234.46 119.61 225.19 132.49 227.35 144.92 234.46 119.61" fill="#3c3"/><polygon points="225.19 132.49 201.73 142.11 227.35 144.92 225.19 132.49" fill="#37a84c"/><polygon points="201.73 142.11 192.54 165.46 203.67 153.13 227.35 144.92 201.73 142.11" fill="#37a84c"/><polygon points="201.73 142.11 186.38 157.13 183.24 169.46 186.38 178.11 192.54 165.46 201.73 142.11" fill="#3c3"/><polygon points="148.54 99.84 181.4 126 160.86 149.35 148.54 99.84" fill="#49d2fc"/></svg>