<svg id="Layer_1" data-name="Layer 1" xmlns="http://www.w3.org/2000/svg" width="220" height="220" viewBox="0 0 220 220"><title>Artboard 1</title><polygon points="103.21 27.92 90.54 92.25 108.88 39.25 103.21 27.92" fill="#ea3e2d"/><polygon points="97.58 56.52 79.54 86.92 87.04 111.08 97.58 56.52" fill="#c12717"/><polygon points="28.13 148.67 36.38 130.67 28.13 116.92 28.13 148.67" fill="#e13217"/><polygon points="28.13 116.92 49.38 106.92 36.38 130.67 28.13 116.92" fill="#ea3e2d"/><polygon points="49.38 106.92 87.04 111.08 38.12 127.47 49.38 106.92" fill="#c12717"/><polygon points="49.38 106.92 67.63 99.42 87.04 111.08 49.38 106.92" fill="#ea3e2d"/><polygon points="67.63 99.42 79.54 86.92 87.04 111.08 67.63 99.42" fill="#e13217"/><polygon points="49.38 123.7 69.21 133.75 87.04 111.08 49.38 123.7" fill="#e13217"/><polygon points="87.04 111.08 90.54 136.58 69.21 133.75 87.04 111.08" fill="#e13217"/><polygon points="69.21 133.75 79.88 156.58 90.54 136.58 69.21 133.75" fill="#c12717"/><polygon points="90.54 136.58 106.21 158.58 79.88 156.58 90.54 136.58" fill="#e13217"/><polygon points="50.54 184.75 64.71 195.25 69.21 185.92 50.54 184.75" fill="#c12717"/><polygon points="64.71 195.25 87.89 191.59 69.21 185.92 64.71 195.25" fill="#ea3e2d"/><polygon points="153.83 211.83 144.04 191.58 120.88 191.58 153.83 211.83" fill="#c12717"/><polygon points="106.21 158.58 144.04 191.58 120.88 191.58 106.21 158.58" fill="#ea3e2d"/><polygon points="79.88 156.58 79.54 170.92 120.88 191.58 79.88 156.58" fill="#ea3e2d"/><polygon points="79.88 156.58 106.21 158.58 120.88 191.58 79.88 156.58" fill="#e13217"/><polygon points="79.54 170.92 69.21 185.92 87.88 191.58 79.54 170.92" fill="#e13217"/><polygon points="87.88 191.58 79.54 170.92 120.88 191.58 87.88 191.58" fill="#c12717"/><polygon points="52.88 70.58 45.04 82.08 51.04 93.42 52.88 70.58" fill="#c12717"/><polygon points="52.88 70.58 63.71 70.58 70.04 84.58 52.88 70.58" fill="#ea3e2d"/><polygon points="51.04 93.42 70.04 84.58 52.88 70.58 51.04 93.42" fill="#e13217"/><polygon points="51.04 93.42 61.96 94.17 70.04 84.58 51.04 93.42" fill="#ea3e2d"/><polygon points="108.88 23.17 112.96 31.5 119.88 28.75 108.88 23.17" fill="#fff039"/><polygon points="119.88 28.75 123.79 43.33 112.96 31.5 119.88 28.75" fill="#fcd700"/><polygon points="112.96 31.5 109.46 60.92 123.79 43.33 112.96 31.5" fill="#fff039"/><polygon points="109.46 60.92 142.04 47.58 123.79 43.33 109.46 60.92" fill="#fcd700"/><polygon points="123.79 43.33 138.04 40.42 142.04 47.58 123.79 43.33" fill="#fef200"/><polygon points="138.04 40.42 157.04 36.67 142.04 47.58 138.04 40.42" fill="#fcd700"/><polygon points="159.83 8.17 166.13 20.42 172.38 16.92 159.83 8.17" fill="#00aeef"/><polygon points="166.13 20.42 166.13 36.04 172.38 16.92 166.13 20.42" fill="#2d87c5"/><polygon points="166.13 36.04 180.88 44 163.54 72.08 166.13 36.04 166.13 36.04" fill="#00aeef"/><polygon points="166.16 35.93 154.21 49.93 163.54 72.08 166.16 35.93" fill="#49d2fc"/><polygon points="154.21 49.93 130.71 61.92 163.54 72.08 154.21 49.93" fill="#2d87c5"/><polygon points="130.71 61.92 134.21 90.75 163.54 72.08 130.71 61.92" fill="#00aeef"/><polygon points="130.71 61.92 108.88 70.58 134.21 90.75 130.71 61.92" fill="#2d87c5"/><polyline points="118.38 108.75 108.88 70.58 96.04 95.75 118.38 108.75" fill="#00aeef"/><polyline points="96.04 95.75 97.58 122.42 115.13 119.75" fill="#2d87c5"/><polygon points="142.04 93.42 132.92 113.92 126.13 111.08 142.04 93.42" fill="#f47a16"/><polygon points="118.38 136.58 126.13 111.08 132.92 113.92 118.38 136.58" fill="#ea770d"/><polygon points="160.17 117.19 144.04 130.67 154.21 134.67 160.17 117.19" fill="#ea770d"/><polygon points="118.38 136.58 138.04 170.92 134.21 132.79 118.38 136.58" fill="#f47a16"/><polygon points="134.21 132.79 152.1 158.58 138.04 170.92 134.21 132.79" fill="#ea770d"/><polygon points="152.1 158.58 163.54 190 138.04 170.92 152.1 158.58" fill="#f7872b"/><polygon points="166.13 147.58 184.13 155.42 189.13 170.92 166.13 147.58" fill="#37a84c"/><polygon points="164.71 166.17 160.17 145.67 170.13 133.17 166.13 147.58 164.71 166.17" fill="#279637"/><polygon points="160.17 145.67 169.63 105.33 170.13 133.17 160.17 145.67" fill="#37a84c"/><polygon points="169.63 105.33 191.88 40.42 170.13 133.17 169.63 105.33" fill="#279637"/><polygon points="188.29 38.08 191.88 40.42 169.92 104.48 188.29 38.08" fill="#37a84c"/><polygon points="183.91 53.93 171.71 74.17 175.09 85.79 183.91 53.93" fill="#3c3"/><polygon points="175.11 85.82 167.96 95.75 169.63 105.33 175.11 85.82" fill="#3c3"/><polygon points="167.96 95.75 149.88 103.17 169.63 105.33 167.96 95.75" fill="#37a84c"/><polyline points="149.88 103.17 142.79 121.17 151.38 111.67 149.88 103.17" fill="#37a84c"/><polygon points="142.79 121.17 138.04 130.92 135.63 124.25 142.79 121.17" fill="#3c3"/><polygon points="108.88 70.58 134.21 90.75 118.38 108.75 108.88 70.58" fill="#49d2fc"/><polygon points="172.38 16.92 180.88 44 180.88 44 166.13 36.04 172.38 16.92" fill="#00aeef"/><polyline points="96.04 95.75 115.13 119.75 118.38 108.75" fill="#2d87c5"/><polygon points="97.58 122.42 115.13 119.75 115.13 136.58 97.58 122.42" fill="#00aeef"/><polygon points="115.13 155.25 115.13 136.58 121.54 158.58 115.13 155.25" fill="#00aeef"/><polygon points="97.58 122.42 115.13 155.25 115.13 136.58 97.58 122.42" fill="#00aeef"/><polygon points="149.29 88.17 144.63 101.67 154.21 93.42 149.29 88.17" fill="#37a84c"/><polygon points="171.71 74.17 174.68 84.37 154.21 93.42 171.71 74.17" fill="#37a84c"/><polygon points="149.29 88.17 171.71 74.17 154.21 93.42 149.29 88.17" fill="#37a84c"/><polygon points="169.63 105.33 151.38 111.67 149.88 103.17 169.63 105.33" fill="#37a84c"/><polygon points="142.79 121.17 138.04 114.75 135.63 124.25 142.79 121.17" fill="#3c3"/><path d="M142.79,121.17l-7.17,3.08Z" fill="#3c3"/><polygon points="149.88 103.17 142.79 121.17 138.04 114.75 149.88 103.17" fill="#3c3"/><polygon points="118.38 136.58 132.92 113.92 134.21 132.79 118.38 136.58" fill="#ea770d"/><polyline points="140.89 142.42 152.1 158.58 154.21 134.67 140.89 142.42" fill="#f47a16"/><polyline points="140.89 142.42 154.21 134.67 144.04 130.67 140.89 142.42" fill="#f47a16"/><polyline points="164.71 166.17 189.13 170.92 174.63 175.08 164.71 166.17" fill="#3c3"/><polygon points="166.13 147.58 164.71 166.17 189.13 170.92 166.13 147.58" fill="#3c3"/></svg>