<svg id="3eea0216-fb3e-465a-b7d2-33311429a97b" data-name="Layer 1" xmlns="http://www.w3.org/2000/svg" viewBox="0 0 300 300">
  <title>LOGO</title>
  <polygon points="140.485 36.053 122.739 126.183 148.424 51.931 140.485 36.053" style="fill: #ea3e2d"/>
  <polygon points="132.594 76.129 107.328 118.711 117.836 152.568 132.594 76.129" style="fill: #c12717"/>
  <polygon points="35.295 205.222 46.853 180.004 35.295 160.741 35.295 205.222" style="fill: #e13217"/>
  <polygon points="35.295 160.741 65.065 146.731 46.853 180.004 35.295 160.741" style="fill: #ea3e2d"/>
  <polygon points="65.065 146.731 117.836 152.568 49.302 175.529 65.065 146.731" style="fill: #c12717"/>
  <polygon points="65.065 146.731 90.633 136.224 117.836 152.568 65.065 146.731" style="fill: #ea3e2d"/>
  <polygon points="90.633 136.224 107.328 118.711 117.836 152.568 90.633 136.224" style="fill: #e13217"/>
  <polygon points="65.065 170.248 92.852 184.324 117.836 152.568 65.065 170.248" style="fill: #e13217"/>
  <polygon points="117.836 152.568 122.739 188.294 92.852 184.324 117.836 152.568" style="fill: #e13217"/>
  <polygon points="92.852 184.324 107.795 216.313 122.739 188.294 92.852 184.324" style="fill: #c12717"/>
  <polygon points="122.739 188.294 144.688 219.115 107.795 216.313 122.739 188.294" style="fill: #e13217"/>
  <polygon points="66.7 255.774 86.547 270.484 92.852 257.409 66.7 255.774" style="fill: #c12717"/>
  <polygon points="86.547 270.484 119.02 265.353 92.852 257.409 86.547 270.484" style="fill: #ea3e2d"/>
  <polygon points="207.499 292.667 197.692 265.348 165.236 265.348 207.499 292.667" style="fill: #c12717"/>
  <polygon points="144.688 219.115 197.692 265.348 165.236 265.348 144.688 219.115" style="fill: #ea3e2d"/>
  <polygon points="107.795 216.313 107.328 236.394 165.236 265.348 107.795 216.313" style="fill: #ea3e2d"/>
  <polygon points="107.795 216.313 144.688 219.115 165.236 265.348 107.795 216.313" style="fill: #e13217"/>
  <polygon points="107.328 236.394 92.852 257.409 119.003 265.348 107.328 236.394" style="fill: #e13217"/>
  <polygon points="119.003 265.348 107.328 236.394 165.236 265.348 119.003 265.348" style="fill: #c12717"/>
  <polygon points="69.969 95.829 58.995 111.94 67.4 127.818 69.969 95.829" style="fill: #c12717"/>
  <polygon points="69.969 95.829 85.146 95.829 94.019 115.442 69.969 95.829" style="fill: #ea3e2d"/>
  <polygon points="67.4 127.818 94.019 115.442 69.969 95.829 67.4 127.818" style="fill: #e13217"/>
  <polygon points="67.4 127.818 82.694 128.869 94.019 115.442 67.4 127.818" style="fill: #ea3e2d"/>
  <polygon points="148.424 29.399 154.145 41.074 163.835 37.221 148.424 29.399" style="fill: #fff039"/>
  <polygon points="163.835 37.221 169.322 57.652 154.145 41.074 163.835 37.221" style="fill: #fcd700"/>
  <polygon points="154.145 41.074 149.241 82.286 169.322 57.652 154.145 41.074" style="fill: #fff039"/>
  <polygon points="149.241 82.286 194.89 63.606 169.322 57.652 149.241 82.286" style="fill: #fcd700"/>
  <polygon points="169.322 57.652 189.286 53.566 194.89 63.606 169.322 57.652" style="fill: #fef200"/>
  <polygon points="189.286 53.566 215.905 48.312 194.89 63.606 189.286 53.566" style="fill: #fcd700"/>
  <polygon points="215.905 7.333 228.63 25.546 237.386 20.643 215.905 7.333" style="fill: #00aeef"/>
  <polygon points="228.63 25.546 228.63 47.436 237.386 20.643 228.63 25.546" style="fill: #2d87c5"/>
  <polygon points="228.682 47.279 211.935 66.89 225.011 97.93 228.682 47.279" style="fill: #49d2fc"/>
  <polygon points="211.935 66.89 179.012 83.687 225.011 97.93 211.935 66.89" style="fill: #2d87c5"/>
  <polygon points="179.012 83.687 183.915 124.082 225.011 97.93 179.012 83.687" style="fill: #00aeef"/>
  <polygon points="179.012 83.687 148.424 95.829 183.915 124.082 179.012 83.687" style="fill: #2d87c5"/>
  <polyline points="161.733 149.3 148.424 95.829 130.445 131.087 161.733 149.3" style="fill: #00aeef"/>
  <polygon points="194.89 127.818 182.106 156.538 172.591 152.568 194.89 127.818" style="fill: #f47a16"/>
  <polygon points="183.915 182.981 182.106 156.538 172.591 152.568 183.915 182.981" style="fill: #ea770d"/>
  <polygon points="220.283 161.13 197.692 180.004 211.935 185.608 220.283 161.13" style="fill: #ea770d"/>
  <polygon points="197.692 180.004 211.935 185.608 208.987 219.115 197.692 180.004" style="fill: #f47a16"/>
  <polygon points="161.733 188.294 189.286 236.394 183.915 182.981 161.733 188.294" style="fill: #f47a16"/>
  <polygon points="183.915 182.981 208.987 219.115 189.286 236.394 183.915 182.981" style="fill: #ea770d"/>
  <polygon points="208.987 219.115 225.011 263.129 189.286 236.394 208.987 219.115" style="fill: #f7872b"/>
  <polygon points="228.63 203.704 253.848 214.679 260.853 236.394 228.63 203.704" style="fill: #37a84c"/>
  <polygon points="226.645 229.739 220.283 201.019 234.234 183.507 228.63 203.704 226.645 229.739" style="fill: #279637"/>
  <polygon points="220.283 201.019 233.534 144.513 234.234 183.507 220.283 201.019" style="fill: #37a84c"/>
  <polygon points="233.534 144.513 264.705 53.566 234.234 183.507 233.534 144.513" style="fill: #279637"/>
  <polygon points="259.685 50.297 264.705 53.566 233.941 143.325 259.685 50.297" style="fill: #37a84c"/>
  <polygon points="253.543 72.492 236.452 100.849 241.19 117.128 253.543 72.492" style="fill: #3c3"/>
  <polygon points="241.217 117.179 231.199 131.087 233.534 144.513 241.217 117.179" style="fill: #3c3"/>
  <polygon points="231.199 131.087 205.864 141.477 233.534 144.513 231.199 131.087" style="fill: #37a84c"/>
  <polygon points="148.424 95.829 183.915 124.082 161.733 149.3 148.424 95.829" style="fill: #49d2fc"/>
  <polygon points="132.594 168.446 157.18 164.71 157.18 214.445 132.594 168.446" style="fill: #00aeef"/>
  <line x1="166.16967" y1="219.11511" x2="157.18003" y2="214.44517" style="fill: #00aeef"/>
  <polyline points="157.18 214.445 157.18 188.294 166.17 219.115" style="fill: #49d2fc"/>
  <polygon points="130.445 131.087 132.594 168.446 161.733 149.3 130.445 131.087" style="fill: #2d87c5"/>
  <polygon points="161.733 149.3 157.18 164.71 132.594 168.446 161.733 149.3" style="fill: #2d87c5"/>
  <polygon points="228.63 203.704 226.645 229.739 240.538 242.231 228.63 203.704" style="fill: #3c3"/>
  <polygon points="228.63 203.704 240.538 242.231 260.853 236.394 228.63 203.704" style="fill: #3dd83d"/>
  <polygon points="237.386 20.643 225.011 97.93 228.682 47.279 237.386 20.643" style="fill: #2d87c5"/>
  <polygon points="237.386 20.643 249.295 58.586 225.011 97.93 237.386 20.643" style="fill: #00aeef"/>
  <polygon points="236.452 100.849 211.935 127.818 240.611 115.139 236.452 100.849" style="fill: #37a84c"/>
  <polygon points="236.452 100.849 205.047 120.463 211.935 127.818 236.452 100.849" style="fill: #37a84c"/>
  <line x1="198.509" y1="139.37589" x2="211.93508" y2="127.81779" style="fill: #37a84c"/>
  <polyline points="211.935 127.818 205.047 120.463 198.509 139.376" style="fill: #37a84c"/>
  <polygon points="197.692 180.004 208.987 219.115 193.299 196.553 197.692 180.004" style="fill: #f47a16"/>
  <polygon points="172.591 152.568 183.915 182.981 161.733 188.294 172.591 152.568" style="fill: #ea770d"/>
  <polygon points="207.966 153.386 205.864 141.477 233.534 144.513 207.966 153.386" style="fill: #37a84c"/>
  <polygon points="205.864 141.477 207.966 153.386 195.941 166.695 205.864 141.477" style="fill: #37a84c"/>
  <polygon points="205.864 141.477 189.286 157.705 195.941 166.695 205.864 141.477" style="fill: #3c3"/>
  <polygon points="189.286 157.705 189.286 180.355 185.9 171.015 189.286 157.705" style="fill: #3c3"/>
  <polygon points="195.941 166.695 189.286 157.705 189.286 180.355 195.941 166.695" style="fill: #3c3"/>
</svg>
