<svg id="2d28243e-1a41-418f-8bb8-7e084c438900" data-name="Layer 1" xmlns="http://www.w3.org/2000/svg" viewBox="0 0 100 100">
  <title>TwitterSVG</title>
  <path id="1871253b-5fe1-4673-b2d1-a94c24b58b7d" data-name="Twitter" d="M86.64581,22.1868a27.52712,27.52712,0,0,1-9.7,3.76,15.258,15.258,0,0,0-11.083-4.948,15.462,15.462,0,0,0-15.24,15.635,21.79832,21.79832,0,0,0,.4,3.563,42.855,42.855,0,0,1-31.271-16.229,15.18905,15.18905,0,0,0-1.979,7.917,16.484,16.484,0,0,0,6.729,13.063,14.06793,14.06793,0,0,1-6.927-1.979v.2a15.339,15.339,0,0,0,12.271,15.24,12.76012,12.76012,0,0,1-3.958.594,12.17007,12.17007,0,0,1-2.771-.2,15.525,15.525,0,0,0,14.25,10.885,29.8749,29.8749,0,0,1-18.8,6.729,21.50863,21.50863,0,0,1-3.562-.2,42.626,42.626,0,0,0,23.354,6.927c27.906,0,43.344-23.75,43.344-44.333v-1.979a29.43793,29.43793,0,0,0,7.521-8.115,27.164,27.164,0,0,1-8.708,2.375A19.481,19.481,0,0,0,86.64581,22.1868Z" style="fill: #fff"/>
</svg>
