<svg id="25b83a3c-5a77-491a-ab1a-f31ab2fa1b67" data-name="Layer 1" xmlns="http://www.w3.org/2000/svg" viewBox="0 0 100 100">
  <title>YouTubeSVG</title>
  <path id="29da2610-e682-44f3-8dd7-402381bfd649" data-name="Path 95" d="M97.5,29.528a12.088,12.088,0,0,0-8.466-8.52C81.6,19,51.755,19,51.755,19s-29.847,0-37.336,2.008a12,12,0,0,0-8.466,8.52C4,37.017,4,52.646,4,52.646S4,68.275,6.008,75.764a12.088,12.088,0,0,0,8.466,8.52c7.435,2.008,37.282,2.008,37.282,2.008s29.847,0,37.336-2.008a12,12,0,0,0,8.466-8.52c1.954-7.489,1.954-23.118,1.954-23.118S99.511,37.017,97.5,29.528ZM41.987,66.864V38.428L66.95,52.646Z" style="fill: #fff"/>
</svg>
