<svg id="Layer_1" data-name="Layer 1" xmlns="http://www.w3.org/2000/svg" width="106.86mm" height="30mm" viewBox="0 0 302.91 85.04"><title>oneplus</title><rect x="0.03" width="302.91" height="85.04" fill="none"/><path d="M195.25,32h-4.46V42.39h4.46a8.07,8.07,0,0,0,2.63-.39,5.39,5.39,0,0,0,1.89-1.09,4.56,4.56,0,0,0,1.14-1.66,5.84,5.84,0,0,0,.39-2.15,4.9,4.9,0,0,0-1.48-3.78A6.63,6.63,0,0,0,195.25,32Z" fill="#eb0029"/><path d="M120,36a6.5,6.5,0,0,0-2.42-1.71,9.24,9.24,0,0,0-6.52,0A6.65,6.65,0,0,0,108.62,36a7.83,7.83,0,0,0-1.56,2.73,12.76,12.76,0,0,0,0,7.39,7.72,7.72,0,0,0,1.56,2.72,6.78,6.78,0,0,0,2.44,1.7,9.23,9.23,0,0,0,6.52,0A6.63,6.63,0,0,0,120,48.83a7.67,7.67,0,0,0,1.54-2.72,12.92,12.92,0,0,0,0-7.4A7.77,7.77,0,0,0,120,36Z" fill="#eb0029"/><polygon points="63.67 63.72 21.17 63.72 21.17 21.22 50.38 21.22 50.38 15.9 15.85 15.9 15.85 69.03 68.98 69.03 68.98 34.5 63.67 34.5 63.67 63.72" fill="#eb0029"/><polygon points="34.42 50.43 34.42 55.75 50.41 55.75 50.41 50.43 45.05 50.43 45.05 29.18 34.42 29.18 34.42 34.55 39.73 34.55 39.73 50.43 34.42 50.43" fill="#eb0029"/><polygon points="68.98 7.93 63.67 7.93 63.67 15.9 55.7 15.9 55.7 21.22 63.67 21.22 63.67 29.18 68.98 29.18 68.98 21.22 76.95 21.22 76.95 15.9 68.98 15.9 68.98 7.93" fill="#eb0029"/><path d="M87.51,15.89V69H287.14V15.89Zm39.39,32a13,13,0,0,1-2.76,4.35,12.64,12.64,0,0,1-4.28,2.87,15.39,15.39,0,0,1-11.06,0,12.73,12.73,0,0,1-4.31-2.87,13,13,0,0,1-2.77-4.35,15.56,15.56,0,0,1,0-10.88,13,13,0,0,1,2.77-4.35,12.71,12.71,0,0,1,4.31-2.87,15.31,15.31,0,0,1,11.06,0,12.53,12.53,0,0,1,7,7.21,15.54,15.54,0,0,1,0,10.88Zm29.87,8.24h-3a2.68,2.68,0,0,1-1.15-.22,2.53,2.53,0,0,1-.91-.79l-13-16.54c0,.31,0,.59,0,.85V56.09h-5.2V28.72h3a4.72,4.72,0,0,1,.61,0,1.66,1.66,0,0,1,.52.15,1.69,1.69,0,0,1,.44.31,4.23,4.23,0,0,1,.41.47l13,16.6c0-.36,0-.7,0-1V28.72h5.2Zm24.34-22.58H167.7V40h10.93v4.66H167.7v6.64h13.42v4.8H162.49V28.72h18.63Zm23.51,7a7.5,7.5,0,0,1-1.94,2.71A9,9,0,0,1,199.52,45a13.29,13.29,0,0,1-4.28.63h-4.46V56.14h-4V28.72h8.43a14.92,14.92,0,0,1,4.42.59A8.62,8.62,0,0,1,202.81,31a6.79,6.79,0,0,1,1.86,2.66,9.23,9.23,0,0,1,.62,3.44A8.83,8.83,0,0,1,204.62,40.56Zm22.66,15.53H210.91V28.72h3.95v24h12.43Zm25.33-11a12.53,12.53,0,0,1-.75,4.35A10.23,10.23,0,0,1,249.73,53a9.88,9.88,0,0,1-3.41,2.31,11.55,11.55,0,0,1-4.49.83,11.72,11.72,0,0,1-4.5-.83A9.82,9.82,0,0,1,233.9,53a10.08,10.08,0,0,1-2.16-3.48,12.56,12.56,0,0,1-.74-4.35V28.74h4V45.11a9.4,9.4,0,0,0,.46,3,6.78,6.78,0,0,0,1.33,2.32,6.13,6.13,0,0,0,2.14,1.51,7.86,7.86,0,0,0,5.74,0,5.89,5.89,0,0,0,2.12-1.5,6.51,6.51,0,0,0,1.33-2.32,9.16,9.16,0,0,0,.46-3V28.74h4Zm20.7,5.78a7.76,7.76,0,0,1-1.77,2.71,8.22,8.22,0,0,1-2.85,1.81,10.5,10.5,0,0,1-3.82.66,11.52,11.52,0,0,1-4.75-.95,11.14,11.14,0,0,1-3.67-2.56l-.28-.29,1.29-1.66a1.53,1.53,0,0,1,.42-.41,1,1,0,0,1,.58-.17,1.66,1.66,0,0,1,1,.46,12.89,12.89,0,0,0,1.22.9,9.31,9.31,0,0,0,1.76.89,7,7,0,0,0,2.51.4,6.65,6.65,0,0,0,2.19-.34,4.69,4.69,0,0,0,1.61-.94,4.07,4.07,0,0,0,1-1.44,4.94,4.94,0,0,0,.35-1.88,3.12,3.12,0,0,0-.5-1.83A4.36,4.36,0,0,0,268.28,45a9.9,9.9,0,0,0-2-.85L264,43.46a24.29,24.29,0,0,1-2.34-.88,7.57,7.57,0,0,1-2.07-1.32,6,6,0,0,1-1.48-2,7.7,7.7,0,0,1,0-5.81A7.13,7.13,0,0,1,259.72,31a7.86,7.86,0,0,1,2.61-1.66,9.64,9.64,0,0,1,3.57-.62,11.46,11.46,0,0,1,4.1.71,9.61,9.61,0,0,1,3.25,2.07l.41.42-1.23,1.53a1.46,1.46,0,0,1-.42.49.94.94,0,0,1-.6.18,1.46,1.46,0,0,1-.84-.36,11.45,11.45,0,0,0-1-.68,8.11,8.11,0,0,0-1.49-.67,6.36,6.36,0,0,0-2.1-.3,6.16,6.16,0,0,0-2,.31,4.24,4.24,0,0,0-1.47.83,3.33,3.33,0,0,0-.87,1.22,3.87,3.87,0,0,0-.3,1.53,2.81,2.81,0,0,0,.49,1.7,4.47,4.47,0,0,0,1.37,1.19,11.12,11.12,0,0,0,2,.87l2.32.79c.8.27,1.59.58,2.33.92a8.38,8.38,0,0,1,2.08,1.31,6,6,0,0,1,1.48,2,6.48,6.48,0,0,1,.57,2.85A9.15,9.15,0,0,1,273.31,50.91Z" fill="#eb0029"/></svg>