<svg id="Layer_1" data-name="Layer 1" xmlns="http://www.w3.org/2000/svg" width="612" height="334.25" viewBox="0 0 612 334.25"><title>woohoo</title><polygon points="152.65 98.16 133.91 151.52 119.56 110.66 115.18 98.16 101.19 98.16 96.81 110.66 82.46 151.52 63.72 98.16 40.97 98.16 71.08 183.93 73.69 191.37 91.23 191.37 93.84 183.93 108.19 143.07 122.53 183.93 125.14 191.37 142.68 191.37 145.29 183.93 175.41 98.16 152.65 98.16" fill="#e97e24"/><path d="M204,96.72a48,48,0,1,0,48,48A48,48,0,0,0,204,96.72Zm0,76.61a28.65,28.65,0,1,1,28.65-28.65A28.65,28.65,0,0,1,204,173.33Z" fill="#e97e24"/><path d="M280.63,96.72a48,48,0,1,0,48,48A48,48,0,0,0,280.63,96.72Zm0,76.61a28.65,28.65,0,1,1,28.65-28.65A28.65,28.65,0,0,1,280.63,173.33Z" fill="#e97e24"/><path d="M439.29,96.72a48,48,0,1,0,48,48A48,48,0,0,0,439.29,96.72Zm0,76.61a28.65,28.65,0,1,1,28.65-28.65A28.65,28.65,0,0,1,439.29,173.33Z" fill="#e97e24"/><path d="M515.88,96.72a48,48,0,1,0,48,48A48,48,0,0,0,515.88,96.72Zm0,76.61a28.65,28.65,0,1,1,28.64-28.65A28.65,28.65,0,0,1,515.88,173.33Z" fill="#e97e24"/><path d="M408.07,139.7v-1l0-.06A42.36,42.36,0,0,0,381.63,100a43.71,43.71,0,0,0-17-3.34A48.75,48.75,0,0,0,346.31,100a47.34,47.34,0,0,0-6.34,3.14V45.31H319V189.86H340V139.93a19.11,19.11,0,0,1,6.51-13.77c4.38-3.91,9.79-7.2,17.52-7.2,8.83,0,12.65,3.07,16.9,7a19.55,19.55,0,0,1,6.25,13v50.87h20.92V139.93h0C408.08,139.85,408.07,139.78,408.07,139.7Z" fill="#e97e24"/><path d="M553,84.17v1.54h-4.4v12h-1.83v-12h-4.41V84.17Z" fill="#e97e24"/><path d="M561.88,93.32l.21.5q.09-.26.2-.51a5.08,5.08,0,0,1,.23-.48l4.6-8.35a.5.5,0,0,1,.25-.26,1.21,1.21,0,0,1,.38,0h1.35V97.75H567.5v-10c0-.13,0-.27,0-.43s0-.31,0-.46l-4.65,8.49a.71.71,0,0,1-.66.43H562a.7.7,0,0,1-.66-.43l-4.76-8.52q0,.25,0,.48c0,.16,0,.3,0,.44v10H555V84.17h1.35a1.15,1.15,0,0,1,.38,0,.54.54,0,0,1,.26.26l4.69,8.36C561.74,93,561.81,93.15,561.88,93.32Z" fill="#e97e24"/><path d="M43.22,238.4H39.71v-21.5h3.51Z" fill="#e97e24"/><path d="M48.7,238.4V223.17h1.94a.79.79,0,0,1,.84.61l.22,1.42a9.25,9.25,0,0,1,1-.93,6.58,6.58,0,0,1,1.13-.72,6.09,6.09,0,0,1,1.28-.46,6.26,6.26,0,0,1,1.47-.16,5.43,5.43,0,0,1,2.2.42,4.41,4.41,0,0,1,1.6,1.18,5.09,5.09,0,0,1,1,1.83,8,8,0,0,1,.33,2.35v9.69h-3.2v-9.69a3.63,3.63,0,0,0-.71-2.39,2.65,2.65,0,0,0-2.16-.85,4.15,4.15,0,0,0-2,.49,6.85,6.85,0,0,0-1.72,1.34v11.1Z" fill="#e97e24"/><path d="M77.64,238.4a.78.78,0,0,1-.82-.61l-.28-1.64a9.28,9.28,0,0,1-1,1,6.47,6.47,0,0,1-1.16.78,6,6,0,0,1-1.32.51,6.1,6.1,0,0,1-1.51.18,5.19,5.19,0,0,1-2.33-.51,5,5,0,0,1-1.79-1.5,7.27,7.27,0,0,1-1.16-2.44,12.32,12.32,0,0,1-.41-3.34,10.46,10.46,0,0,1,.46-3.15,7.69,7.69,0,0,1,1.31-2.52,6,6,0,0,1,4.79-2.28,5.15,5.15,0,0,1,4,1.61v-8.2h3.21v22.1Zm-5-2.36a4.05,4.05,0,0,0,2.11-.52A6.13,6.13,0,0,0,76.37,234v-7.09a4,4,0,0,0-1.49-1.2,4.29,4.29,0,0,0-1.74-.35,3.5,3.5,0,0,0-2.94,1.38,6.64,6.64,0,0,0-1.06,4.08,10.39,10.39,0,0,0,.24,2.4,4.63,4.63,0,0,0,.69,1.62,2.64,2.64,0,0,0,1.09.91A3.54,3.54,0,0,0,72.61,236Z" fill="#e97e24"/><path d="M88.57,218.57a2,2,0,0,1-.17.82,2.17,2.17,0,0,1-.47.68,2.3,2.3,0,0,1-.69.46,2.1,2.1,0,0,1-.84.17,2,2,0,0,1-.81-.17,2.16,2.16,0,0,1-.66-.46,2.31,2.31,0,0,1-.46-.68,2,2,0,0,1-.17-.82,2.05,2.05,0,0,1,.17-.84,2.29,2.29,0,0,1,.46-.68,2.15,2.15,0,0,1,.66-.46,1.94,1.94,0,0,1,.81-.17,2.08,2.08,0,0,1,.84.17,2.29,2.29,0,0,1,.69.46,2.15,2.15,0,0,1,.47.68A2.05,2.05,0,0,1,88.57,218.57Zm-.54,4.6V238.4H84.82V223.17Z" fill="#e97e24"/><path d="M103.1,238.4a1.39,1.39,0,0,1-.7-.14,1.09,1.09,0,0,1-.4-.58l-.31-1.24a11.61,11.61,0,0,1-1.15.94,7.63,7.63,0,0,1-1.17.69,5.79,5.79,0,0,1-1.3.42,7.65,7.65,0,0,1-1.53.14,5.68,5.68,0,0,1-1.73-.25,3.79,3.79,0,0,1-1.38-.77,3.64,3.64,0,0,1-.92-1.28,4.42,4.42,0,0,1-.34-1.79,3.46,3.46,0,0,1,.47-1.72,4.3,4.3,0,0,1,1.55-1.5,10.1,10.1,0,0,1,2.85-1.1,20.77,20.77,0,0,1,4.37-.49v-1a3.65,3.65,0,0,0-.7-2.45,2.58,2.58,0,0,0-2.06-.81,4.52,4.52,0,0,0-1.55.23,7.07,7.07,0,0,0-1.09.5l-.82.5a1.37,1.37,0,0,1-.76.23.91.91,0,0,1-.56-.17,1.41,1.41,0,0,1-.38-.43l-.58-1a8.72,8.72,0,0,1,6.15-2.4,6.05,6.05,0,0,1,2.34.43,4.68,4.68,0,0,1,1.72,1.2,5.32,5.32,0,0,1,1.06,1.84,7.26,7.26,0,0,1,.37,2.37v9.68Zm-5.6-2a4.62,4.62,0,0,0,2.16-.47,6.89,6.89,0,0,0,1.75-1.35v-2.84a22.75,22.75,0,0,0-2.9.28,7.78,7.78,0,0,0-1.91.55,2.61,2.61,0,0,0-1.05.8,1.71,1.71,0,0,0-.32,1,2.22,2.22,0,0,0,.17.92,1.67,1.67,0,0,0,.48.63,1.94,1.94,0,0,0,.72.36A3.41,3.41,0,0,0,97.5,236.4Z" fill="#e97e24"/><path d="M111.21,215.46a7.38,7.38,0,0,1,.91,2.37,6.86,6.86,0,0,1-.77,4.74,7.1,7.1,0,0,1-1.65,2l-1-.61a.44.44,0,0,1-.23-.43.64.64,0,0,1,.17-.41,4.57,4.57,0,0,0,.63-1.06,5,5,0,0,0,.38-1.41,5.58,5.58,0,0,0,0-1.62,4.76,4.76,0,0,0-.65-1.69.77.77,0,0,1-.13-.67.68.68,0,0,1,.43-.4Z" fill="#e97e24"/><path d="M125.1,225.93a.79.79,0,0,1-.27.3.72.72,0,0,1-.37.09,1.2,1.2,0,0,1-.55-.16l-.7-.35a6,6,0,0,0-.95-.35,4.65,4.65,0,0,0-1.28-.16,3.84,3.84,0,0,0-1.08.14,2.45,2.45,0,0,0-.82.4,1.82,1.82,0,0,0-.52.61,1.64,1.64,0,0,0-.18.75,1.28,1.28,0,0,0,.33.9,2.84,2.84,0,0,0,.87.62,8.36,8.36,0,0,0,1.22.47l1.4.45a14,14,0,0,1,1.4.55,5.26,5.26,0,0,1,1.22.77,3.5,3.5,0,0,1,.87,1.11,3.45,3.45,0,0,1,.33,1.58,5,5,0,0,1-.39,2,4.46,4.46,0,0,1-1.13,1.58,5.21,5.21,0,0,1-1.86,1,8,8,0,0,1-2.55.37,8.09,8.09,0,0,1-1.53-.14,8.83,8.83,0,0,1-1.4-.39,7.49,7.49,0,0,1-1.24-.59,6.58,6.58,0,0,1-1-.75l.75-1.22a1,1,0,0,1,.34-.35.92.92,0,0,1,.5-.13,1.12,1.12,0,0,1,.62.2l.72.44a5.65,5.65,0,0,0,1,.44,4.49,4.49,0,0,0,1.45.2,4,4,0,0,0,1.24-.17,2.48,2.48,0,0,0,.87-.47,1.88,1.88,0,0,0,.51-.68,2,2,0,0,0,.16-.81,1.4,1.4,0,0,0-.33-1,2.8,2.8,0,0,0-.87-.64,7.93,7.93,0,0,0-1.24-.48l-1.41-.45a14.76,14.76,0,0,1-1.41-.55,4.86,4.86,0,0,1-1.24-.8,3.64,3.64,0,0,1-.87-1.18,3.94,3.94,0,0,1-.33-1.7,4.19,4.19,0,0,1,1.44-3.18,5.22,5.22,0,0,1,1.75-1,7.19,7.19,0,0,1,2.4-.37,7.57,7.57,0,0,1,2.79.49,6.07,6.07,0,0,1,2.11,1.34Z" fill="#e97e24"/><path d="M138.87,238.4V223.17h1.94a.79.79,0,0,1,.84.61l.21,1.33a9.58,9.58,0,0,1,.87-.87,5.67,5.67,0,0,1,1-.69,4.94,4.94,0,0,1,1.1-.46,4.75,4.75,0,0,1,1.28-.16,4.15,4.15,0,0,1,1.34.21,3.43,3.43,0,0,1,1.08.6,3.84,3.84,0,0,1,.81.94,5.71,5.71,0,0,1,.57,1.24,4.81,4.81,0,0,1,.87-1.36,4.69,4.69,0,0,1,1.16-.93,5.27,5.27,0,0,1,1.37-.53,6.36,6.36,0,0,1,1.47-.17,5.81,5.81,0,0,1,2.19.39,4.34,4.34,0,0,1,1.63,1.13,4.92,4.92,0,0,1,1,1.81,8.06,8.06,0,0,1,.34,2.45v9.69H156.7v-9.69a3.66,3.66,0,0,0-.69-2.43,2.55,2.55,0,0,0-2.05-.81,3.14,3.14,0,0,0-1.15.21,2.71,2.71,0,0,0-.94.61,2.83,2.83,0,0,0-.63,1,3.93,3.93,0,0,0-.23,1.41v9.69h-3.21v-9.69a3.72,3.72,0,0,0-.67-2.46,2.45,2.45,0,0,0-2-.78,3.17,3.17,0,0,0-1.66.46,5.37,5.37,0,0,0-1.4,1.25V238.4Z" fill="#e97e24"/><path d="M171.45,222.93a8.08,8.08,0,0,1,3.05.55,6.53,6.53,0,0,1,2.33,1.57,7,7,0,0,1,1.49,2.46,10.39,10.39,0,0,1,0,6.51,7,7,0,0,1-1.49,2.47,6.49,6.49,0,0,1-2.33,1.58,8.77,8.77,0,0,1-6.12,0A6.56,6.56,0,0,1,166,236.5a7,7,0,0,1-1.49-2.47,10.4,10.4,0,0,1,0-6.51A6.9,6.9,0,0,1,166,225a6.61,6.61,0,0,1,2.34-1.57A8.13,8.13,0,0,1,171.45,222.93Zm0,13.19a3.55,3.55,0,0,0,3.07-1.38,6.62,6.62,0,0,0,1-4,6.7,6.7,0,0,0-1-4,3.53,3.53,0,0,0-3.07-1.4,3.59,3.59,0,0,0-3.11,1.4,6.66,6.66,0,0,0-1,4,6.59,6.59,0,0,0,1,4A3.6,3.6,0,0,0,171.45,236.11Z" fill="#e97e24"/><path d="M192.21,225.93a.79.79,0,0,1-.27.3.72.72,0,0,1-.37.09,1.2,1.2,0,0,1-.55-.16l-.7-.35a6,6,0,0,0-.95-.35,4.65,4.65,0,0,0-1.28-.16,3.84,3.84,0,0,0-1.08.14,2.45,2.45,0,0,0-.82.4,1.82,1.82,0,0,0-.52.61,1.64,1.64,0,0,0-.18.75,1.28,1.28,0,0,0,.33.9,2.84,2.84,0,0,0,.87.62,8.36,8.36,0,0,0,1.22.47l1.4.45a14,14,0,0,1,1.4.55,5.26,5.26,0,0,1,1.22.77,3.5,3.5,0,0,1,.87,1.11,3.45,3.45,0,0,1,.33,1.58,5,5,0,0,1-.39,2,4.46,4.46,0,0,1-1.13,1.58,5.21,5.21,0,0,1-1.86,1,8,8,0,0,1-2.55.37,8.09,8.09,0,0,1-1.53-.14,8.83,8.83,0,0,1-1.4-.39,7.49,7.49,0,0,1-1.24-.59,6.58,6.58,0,0,1-1-.75l.75-1.22a1,1,0,0,1,.34-.35.92.92,0,0,1,.5-.13,1.12,1.12,0,0,1,.62.2l.72.44a5.65,5.65,0,0,0,1,.44,4.49,4.49,0,0,0,1.45.2,4,4,0,0,0,1.24-.17,2.48,2.48,0,0,0,.87-.47A1.88,1.88,0,0,0,190,235a2,2,0,0,0,.16-.81,1.4,1.4,0,0,0-.33-1,2.8,2.8,0,0,0-.87-.64,7.93,7.93,0,0,0-1.24-.48l-1.41-.45a14.76,14.76,0,0,1-1.41-.55,4.86,4.86,0,0,1-1.24-.8,3.64,3.64,0,0,1-.87-1.18,3.94,3.94,0,0,1-.33-1.7,4.19,4.19,0,0,1,1.44-3.18,5.22,5.22,0,0,1,1.75-1,7.19,7.19,0,0,1,2.4-.37,7.57,7.57,0,0,1,2.79.49,6.07,6.07,0,0,1,2.11,1.34Z" fill="#e97e24"/><path d="M202.23,238.64a3.85,3.85,0,0,1-2.92-1.07,4.17,4.17,0,0,1-1-3v-8.87h-1.67a.67.67,0,0,1-.46-.17A.65.65,0,0,1,196,225v-1.3l2.46-.36.7-4.41a.85.85,0,0,1,.25-.41.7.7,0,0,1,.48-.16h1.64v5h4.23v2.31H201.5v8.65a1.78,1.78,0,0,0,.4,1.25A1.4,1.4,0,0,0,203,236a1.88,1.88,0,0,0,.64-.1,2.92,2.92,0,0,0,.46-.21l.34-.21a.46.46,0,0,1,.71.2l1,1.57a5.2,5.2,0,0,1-1.76,1A6.35,6.35,0,0,1,202.23,238.64Z" fill="#e97e24"/><path d="M218.09,243.46V223.17H220a.79.79,0,0,1,.84.61l.25,1.6a9.78,9.78,0,0,1,1-1,6.26,6.26,0,0,1,1.16-.79,5.91,5.91,0,0,1,1.33-.51,6.14,6.14,0,0,1,1.52-.18,5.19,5.19,0,0,1,2.33.52,5,5,0,0,1,1.79,1.5,7.27,7.27,0,0,1,1.16,2.44,12.32,12.32,0,0,1,.41,3.34,10.49,10.49,0,0,1-.46,3.14,7.67,7.67,0,0,1-1.31,2.52A6.09,6.09,0,0,1,228,238a6,6,0,0,1-2.73.6,5.15,5.15,0,0,1-4-1.61v6.45Zm7-18a4,4,0,0,0-2.12.53,6,6,0,0,0-1.64,1.52v7.06a3.85,3.85,0,0,0,1.47,1.22,4.35,4.35,0,0,0,1.77.35,3.49,3.49,0,0,0,2.93-1.37,6.66,6.66,0,0,0,1.05-4.09,10.4,10.4,0,0,0-.24-2.4,4.64,4.64,0,0,0-.69-1.62,2.65,2.65,0,0,0-1.09-.91A3.56,3.56,0,0,0,225.06,225.47Z" fill="#e97e24"/><path d="M242.73,222.93a8.08,8.08,0,0,1,3.05.55,6.53,6.53,0,0,1,2.33,1.57,7,7,0,0,1,1.49,2.46,10.39,10.39,0,0,1,0,6.51,7,7,0,0,1-1.49,2.47,6.49,6.49,0,0,1-2.33,1.58,8.77,8.77,0,0,1-6.12,0,6.56,6.56,0,0,1-2.34-1.58,7,7,0,0,1-1.49-2.47,10.4,10.4,0,0,1,0-6.51,6.9,6.9,0,0,1,1.49-2.46,6.61,6.61,0,0,1,2.34-1.57A8.13,8.13,0,0,1,242.73,222.93Zm0,13.19a3.55,3.55,0,0,0,3.07-1.38,6.62,6.62,0,0,0,1-4,6.7,6.7,0,0,0-1-4,3.53,3.53,0,0,0-3.07-1.4,3.59,3.59,0,0,0-3.11,1.4,6.66,6.66,0,0,0-1,4,6.59,6.59,0,0,0,1,4A3.6,3.6,0,0,0,242.73,236.11Z" fill="#e97e24"/><path d="M252.57,223.17h2.54a1,1,0,0,1,.62.19.86.86,0,0,1,.32.44l2.54,8.87q.15.61.26,1.19T259,235l.31-1.14q.16-.57.35-1.19l2.85-8.92a.81.81,0,0,1,.31-.44.91.91,0,0,1,.56-.17h1.4a1,1,0,0,1,.58.17.79.79,0,0,1,.31.44l2.78,8.92.33,1.19q.16.58.3,1.15a22.11,22.11,0,0,1,.51-2.34l2.58-8.87a.91.91,0,0,1,.33-.45.94.94,0,0,1,.58-.18h2.42l-4.88,15.23h-2.55q-.45,0-.63-.58l-3-9.48q-.12-.4-.22-.8t-.17-.8q-.16.81-.4,1.61l-3.08,9.47a.69.69,0,0,1-.7.58h-2.43Z" fill="#e97e24"/><path d="M285.21,222.93a7.23,7.23,0,0,1,2.6.46,5.7,5.7,0,0,1,2.06,1.34,6.16,6.16,0,0,1,1.35,2.16,8.14,8.14,0,0,1,.49,2.9,2.05,2.05,0,0,1-.16,1,.66.66,0,0,1-.6.25h-9.78a7.64,7.64,0,0,0,.4,2.25,4.63,4.63,0,0,0,.92,1.58,3.56,3.56,0,0,0,1.37.93,4.93,4.93,0,0,0,1.78.31,5.43,5.43,0,0,0,1.63-.22,7.6,7.6,0,0,0,1.19-.48c.34-.17.63-.33.87-.48a1.29,1.29,0,0,1,.66-.22.69.69,0,0,1,.6.3l.91,1.18a5.78,5.78,0,0,1-1.28,1.13,7.48,7.48,0,0,1-1.52.75,8.55,8.55,0,0,1-1.66.42,11.19,11.19,0,0,1-1.66.13,8,8,0,0,1-2.93-.53,6.52,6.52,0,0,1-2.34-1.56,7.2,7.2,0,0,1-1.55-2.55,10.13,10.13,0,0,1-.56-3.51,8.57,8.57,0,0,1,.5-3,7.06,7.06,0,0,1,1.43-2.39,6.74,6.74,0,0,1,2.27-1.61A7.42,7.42,0,0,1,285.21,222.93Zm.06,2.33a3.71,3.71,0,0,0-2.75,1,4.85,4.85,0,0,0-1.27,2.81h7.57a4.72,4.72,0,0,0-.23-1.5,3.5,3.5,0,0,0-.68-1.21,3.1,3.1,0,0,0-1.11-.81A3.78,3.78,0,0,0,285.27,225.26Z" fill="#e97e24"/><path d="M295.89,238.4V223.17h1.87a1,1,0,0,1,.7.19,1.15,1.15,0,0,1,.27.65l.18,2a6.89,6.89,0,0,1,1.75-2.28,3.73,3.73,0,0,1,2.43-.83,3.66,3.66,0,0,1,.93.11,2.59,2.59,0,0,1,.78.34l-.22,2.42a.6.6,0,0,1-.19.35.54.54,0,0,1-.34.1,3.61,3.61,0,0,1-.64-.08,4.57,4.57,0,0,0-.88-.08,3.41,3.41,0,0,0-1.19.19,2.75,2.75,0,0,0-.93.57,3.92,3.92,0,0,0-.72.91,8.79,8.79,0,0,0-.58,1.22v9.47Z" fill="#e97e24"/><path d="M309.13,238.4V225.72l-1.49-.21a1.32,1.32,0,0,1-.61-.27.68.68,0,0,1-.23-.55v-1.31h2.33v-1.28a6.69,6.69,0,0,1,.38-2.33,4.8,4.8,0,0,1,1.09-1.75,4.72,4.72,0,0,1,1.72-1.1,6.93,6.93,0,0,1,3.28-.31,5.83,5.83,0,0,1,.92.22l-.06,1.61a.47.47,0,0,1-.4.48,4.71,4.71,0,0,1-.92.07,4.33,4.33,0,0,0-1.21.16,2.15,2.15,0,0,0-.92.53,2.41,2.41,0,0,0-.58,1,4.92,4.92,0,0,0-.2,1.52v1.18h4.17v2.31h-4.06V238.4Z" fill="#e97e24"/><path d="M322.95,223.17v9.69a3.63,3.63,0,0,0,.71,2.39,2.65,2.65,0,0,0,2.16.85,4.17,4.17,0,0,0,2-.49,6.7,6.7,0,0,0,1.73-1.34V223.17h3.21V238.4h-1.94a.78.78,0,0,1-.82-.61l-.24-1.42a8.51,8.51,0,0,1-2.14,1.64,5.68,5.68,0,0,1-2.73.63,5.46,5.46,0,0,1-2.21-.42A4.39,4.39,0,0,1,321,237a5.08,5.08,0,0,1-1-1.83,8,8,0,0,1-.33-2.35v-9.69Z" fill="#e97e24"/><path d="M341.11,216.3v22.1H337.9V216.3Z" fill="#e97e24"/><path d="M360.34,222.9a7.57,7.57,0,0,1,1.84.22,6.77,6.77,0,0,1,1.58.61H368v1.19q0,.6-.72.73l-1.52.25a4.8,4.8,0,0,1,.39,1.93,4.52,4.52,0,0,1-1.66,3.58,5.47,5.47,0,0,1-1.85,1,7.6,7.6,0,0,1-2.33.34,8.1,8.1,0,0,1-.93-.05c-.3,0-.6-.08-.89-.14a2.11,2.11,0,0,0-.64.54,1,1,0,0,0-.21.58.78.78,0,0,0,.43.73,3.4,3.4,0,0,0,1.14.34,14.22,14.22,0,0,0,1.62.13q.91,0,1.85.1a17.51,17.51,0,0,1,1.85.25,5.35,5.35,0,0,1,1.62.57,3,3,0,0,1,1.58,2.82,4.11,4.11,0,0,1-.49,1.93,5.2,5.2,0,0,1-1.43,1.67,7.41,7.41,0,0,1-2.28,1.17,9.81,9.81,0,0,1-3.06.44,11.87,11.87,0,0,1-3-.33,7,7,0,0,1-2.11-.89,3.82,3.82,0,0,1-1.25-1.29,3.07,3.07,0,0,1-.41-1.52,2.66,2.66,0,0,1,.68-1.84,4.53,4.53,0,0,1,1.84-1.19,2.61,2.61,0,0,1-1-.82,2.28,2.28,0,0,1-.38-1.37,2.17,2.17,0,0,1,.12-.69,2.75,2.75,0,0,1,.37-.71,3.62,3.62,0,0,1,.61-.66,4.44,4.44,0,0,1,.86-.57,4.78,4.78,0,0,1-1.78-1.67,4.52,4.52,0,0,1-.65-2.43,4.63,4.63,0,0,1,.44-2,4.49,4.49,0,0,1,1.23-1.55,5.64,5.64,0,0,1,1.87-1A7.81,7.81,0,0,1,360.34,222.9Zm4.47,16.25a1.12,1.12,0,0,0-.29-.8,2,2,0,0,0-.78-.49,5.09,5.09,0,0,0-1.16-.25q-.67-.07-1.4-.12l-1.51-.08q-.78,0-1.49-.14a3.88,3.88,0,0,0-1.17.9,1.81,1.81,0,0,0-.45,1.21,1.59,1.59,0,0,0,.23.84,2,2,0,0,0,.72.67,4.27,4.27,0,0,0,1.24.45,8.65,8.65,0,0,0,1.81.17,6.15,6.15,0,0,0,3.18-.66A1.94,1.94,0,0,0,364.81,239.15Zm-4.47-8.5a3,3,0,0,0,2.24-.76,2.71,2.71,0,0,0,.75-2,2.65,2.65,0,0,0-.75-2,3.78,3.78,0,0,0-4.47,0,2.64,2.64,0,0,0-.75,2,3.06,3.06,0,0,0,.19,1.11,2.4,2.4,0,0,0,.57.87,2.54,2.54,0,0,0,.93.57A3.82,3.82,0,0,0,360.34,230.65Z" fill="#e97e24"/><path d="M375.65,218.57a2,2,0,0,1-.17.82,2.17,2.17,0,0,1-.47.68,2.3,2.3,0,0,1-.69.46,2.11,2.11,0,0,1-.84.17,2,2,0,0,1-.81-.17,2.15,2.15,0,0,1-.66-.46,2.29,2.29,0,0,1-.46-.68,2,2,0,0,1-.17-.82,2.05,2.05,0,0,1,.17-.84,2.27,2.27,0,0,1,.46-.68,2.14,2.14,0,0,1,.66-.46,2,2,0,0,1,.81-.17,2.09,2.09,0,0,1,.84.17,2.29,2.29,0,0,1,.69.46,2.16,2.16,0,0,1,.47.68A2.05,2.05,0,0,1,375.65,218.57Zm-.54,4.6V238.4H371.9V223.17Z" fill="#e97e24"/><path d="M394.39,225.69v8.65a1.78,1.78,0,0,0,.4,1.25,1.4,1.4,0,0,0,1.08.43,1.87,1.87,0,0,0,.64-.1,2.92,2.92,0,0,0,.46-.21l.34-.21a.46.46,0,0,1,.71.2l1,1.57a5.2,5.2,0,0,1-1.76,1,6.35,6.35,0,0,1-2.09.35,3.85,3.85,0,0,1-2.92-1.07,4.18,4.18,0,0,1-1-3v-8.87h-6.59V238.4h-3.21V225.72l-1.49-.21a1.32,1.32,0,0,1-.6-.27.68.68,0,0,1-.23-.55v-1.31h2.33v-1.28a6.69,6.69,0,0,1,.38-2.33,4.81,4.81,0,0,1,1.09-1.75,4.72,4.72,0,0,1,1.72-1.1,6.93,6.93,0,0,1,3.28-.31,5.84,5.84,0,0,1,.92.22l-.06,1.61a.47.47,0,0,1-.4.48,4.7,4.7,0,0,1-.92.07,4.32,4.32,0,0,0-1.21.16,2.14,2.14,0,0,0-.92.53,2.4,2.4,0,0,0-.58,1,4.92,4.92,0,0,0-.2,1.52v1.18h6.81l.72-4.44a.85.85,0,0,1,.25-.41.69.69,0,0,1,.48-.16h1.64v5h4.23v2.31Z" fill="#e97e24"/><path d="M406.23,218.57a2,2,0,0,1-.17.82,2.17,2.17,0,0,1-.47.68,2.3,2.3,0,0,1-.69.46,2.11,2.11,0,0,1-.84.17,2,2,0,0,1-.81-.17,2.15,2.15,0,0,1-.66-.46,2.29,2.29,0,0,1-.46-.68,2,2,0,0,1-.17-.82,2.05,2.05,0,0,1,.17-.84,2.27,2.27,0,0,1,.46-.68,2.14,2.14,0,0,1,.66-.46,2,2,0,0,1,.81-.17,2.09,2.09,0,0,1,.84.17,2.29,2.29,0,0,1,.69.46,2.16,2.16,0,0,1,.47.68A2.05,2.05,0,0,1,406.23,218.57Zm-.54,4.6V238.4h-3.21V223.17Z" fill="#e97e24"/><path d="M410.93,238.4V223.17h1.94a.79.79,0,0,1,.84.61l.22,1.42a9.25,9.25,0,0,1,1-.93,6.57,6.57,0,0,1,1.13-.72,6.07,6.07,0,0,1,1.28-.46,6.26,6.26,0,0,1,1.47-.16,5.43,5.43,0,0,1,2.2.42,4.41,4.41,0,0,1,1.6,1.18,5.09,5.09,0,0,1,1,1.83,8,8,0,0,1,.33,2.35v9.69h-3.2v-9.69a3.63,3.63,0,0,0-.71-2.39,2.65,2.65,0,0,0-2.16-.85,4.16,4.16,0,0,0-2,.49,6.86,6.86,0,0,0-1.72,1.34v11.1Z" fill="#e97e24"/><path d="M434.32,222.9a7.57,7.57,0,0,1,1.84.22,6.77,6.77,0,0,1,1.58.61H442v1.19q0,.6-.72.73l-1.52.25a4.8,4.8,0,0,1,.39,1.93,4.52,4.52,0,0,1-1.66,3.58,5.47,5.47,0,0,1-1.85,1,7.6,7.6,0,0,1-2.33.34,8.1,8.1,0,0,1-.93-.05c-.3,0-.6-.08-.89-.14a2.11,2.11,0,0,0-.64.54,1,1,0,0,0-.21.58.78.78,0,0,0,.43.73,3.4,3.4,0,0,0,1.14.34,14.22,14.22,0,0,0,1.62.13q.91,0,1.85.1a17.51,17.51,0,0,1,1.85.25,5.35,5.35,0,0,1,1.62.57,3,3,0,0,1,1.58,2.82,4.11,4.11,0,0,1-.49,1.93,5.2,5.2,0,0,1-1.43,1.67,7.41,7.41,0,0,1-2.28,1.17,9.81,9.81,0,0,1-3.06.44,11.87,11.87,0,0,1-3-.33,7,7,0,0,1-2.11-.89,3.82,3.82,0,0,1-1.25-1.29,3.07,3.07,0,0,1-.41-1.52,2.66,2.66,0,0,1,.68-1.84,4.53,4.53,0,0,1,1.84-1.19,2.61,2.61,0,0,1-1-.82,2.28,2.28,0,0,1-.38-1.37,2.17,2.17,0,0,1,.12-.69,2.75,2.75,0,0,1,.37-.71,3.62,3.62,0,0,1,.61-.66,4.44,4.44,0,0,1,.86-.57,4.78,4.78,0,0,1-1.78-1.67,4.52,4.52,0,0,1-.65-2.43,4.63,4.63,0,0,1,.44-2,4.49,4.49,0,0,1,1.23-1.55,5.64,5.64,0,0,1,1.87-1A7.81,7.81,0,0,1,434.32,222.9Zm4.47,16.25a1.12,1.12,0,0,0-.29-.8,2,2,0,0,0-.78-.49,5.09,5.09,0,0,0-1.16-.25q-.67-.07-1.4-.12l-1.51-.08q-.78,0-1.49-.14a3.88,3.88,0,0,0-1.17.9,1.81,1.81,0,0,0-.45,1.21,1.59,1.59,0,0,0,.23.84,2,2,0,0,0,.72.67,4.27,4.27,0,0,0,1.24.45,8.65,8.65,0,0,0,1.81.17,6.15,6.15,0,0,0,3.18-.66A1.94,1.94,0,0,0,438.79,239.15Zm-4.47-8.5a3,3,0,0,0,2.24-.76,2.71,2.71,0,0,0,.75-2,2.65,2.65,0,0,0-.75-2,3.78,3.78,0,0,0-4.47,0,2.64,2.64,0,0,0-.75,2,3.06,3.06,0,0,0,.19,1.11,2.4,2.4,0,0,0,.57.87,2.54,2.54,0,0,0,.93.57A3.82,3.82,0,0,0,434.32,230.65Z" fill="#e97e24"/><path d="M454.38,243.46V223.17h1.94a.79.79,0,0,1,.84.61l.25,1.6a9.87,9.87,0,0,1,1-1,6.26,6.26,0,0,1,1.16-.79,5.92,5.92,0,0,1,1.33-.51,6.15,6.15,0,0,1,1.52-.18,5.2,5.2,0,0,1,2.33.52,5,5,0,0,1,1.79,1.5,7.26,7.26,0,0,1,1.16,2.44,12.3,12.3,0,0,1,.41,3.34,10.48,10.48,0,0,1-.46,3.14,7.67,7.67,0,0,1-1.31,2.52,6.09,6.09,0,0,1-2.06,1.67,6,6,0,0,1-2.73.6,5.15,5.15,0,0,1-4-1.61v6.45Zm7-18a4,4,0,0,0-2.12.53,6,6,0,0,0-1.64,1.52v7.06a3.85,3.85,0,0,0,1.47,1.22,4.35,4.35,0,0,0,1.77.35,3.49,3.49,0,0,0,2.93-1.37,6.66,6.66,0,0,0,1.05-4.09,10.41,10.41,0,0,0-.24-2.4,4.66,4.66,0,0,0-.69-1.62,2.65,2.65,0,0,0-1.09-.91A3.56,3.56,0,0,0,461.35,225.47Z" fill="#e97e24"/><path d="M475.7,216.3v22.1h-3.21V216.3Z" fill="#e97e24"/><path d="M490.69,238.4a1.39,1.39,0,0,1-.7-.14,1.08,1.08,0,0,1-.4-.58l-.31-1.24a11.73,11.73,0,0,1-1.15.94,7.6,7.6,0,0,1-1.17.69,5.81,5.81,0,0,1-1.3.42,7.64,7.64,0,0,1-1.53.14,5.67,5.67,0,0,1-1.72-.25,3.79,3.79,0,0,1-1.38-.77,3.64,3.64,0,0,1-.92-1.28,4.4,4.4,0,0,1-.34-1.79,3.46,3.46,0,0,1,.47-1.72,4.29,4.29,0,0,1,1.55-1.5,10.09,10.09,0,0,1,2.85-1.1,20.77,20.77,0,0,1,4.37-.49v-1a3.65,3.65,0,0,0-.7-2.45,2.59,2.59,0,0,0-2.06-.81,4.52,4.52,0,0,0-1.55.23,7.06,7.06,0,0,0-1.09.5l-.82.5a1.37,1.37,0,0,1-.76.23.91.91,0,0,1-.56-.17,1.42,1.42,0,0,1-.38-.43l-.58-1a8.72,8.72,0,0,1,6.15-2.4,6,6,0,0,1,2.34.43,4.68,4.68,0,0,1,1.72,1.2,5.32,5.32,0,0,1,1.06,1.84,7.29,7.29,0,0,1,.37,2.37v9.68Zm-5.6-2a4.62,4.62,0,0,0,2.16-.47,6.89,6.89,0,0,0,1.75-1.35v-2.84a22.73,22.73,0,0,0-2.9.28,7.8,7.8,0,0,0-1.91.55,2.61,2.61,0,0,0-1.05.8,1.71,1.71,0,0,0-.32,1,2.23,2.23,0,0,0,.17.92,1.67,1.67,0,0,0,.48.63,1.93,1.93,0,0,0,.72.36A3.4,3.4,0,0,0,485.09,236.4Z" fill="#e97e24"/><path d="M508.06,238.4V225.69h-7v8.65a1.78,1.78,0,0,0,.4,1.25,1.4,1.4,0,0,0,1.08.43,1.88,1.88,0,0,0,.64-.1,3,3,0,0,0,.46-.21l.34-.21a.46.46,0,0,1,.71.2l1,1.57a5.2,5.2,0,0,1-1.76,1,6.35,6.35,0,0,1-2.09.35,3.85,3.85,0,0,1-2.92-1.07,4.18,4.18,0,0,1-1-3v-8.87h-1.67a.67.67,0,0,1-.46-.17.65.65,0,0,1-.19-.51v-1.3l2.46-.36.7-4.41a.85.85,0,0,1,.25-.41.69.69,0,0,1,.48-.16H501v5h7v-1.28a6.69,6.69,0,0,1,.38-2.33,4.82,4.82,0,0,1,1.09-1.75,4.72,4.72,0,0,1,1.73-1.1,6.42,6.42,0,0,1,2.27-.38,6.24,6.24,0,0,1,1.93.3l-.08,1.61a.47.47,0,0,1-.4.48,4.71,4.71,0,0,1-.92.07,4.32,4.32,0,0,0-1.21.16,2.15,2.15,0,0,0-.92.53,2.41,2.41,0,0,0-.58,1,4.92,4.92,0,0,0-.2,1.52v1.18h4.17v2.31h-4.06V238.4Z" fill="#e97e24"/><path d="M525,222.93a8.08,8.08,0,0,1,3.05.55,6.54,6.54,0,0,1,2.33,1.57,7,7,0,0,1,1.49,2.46,10.4,10.4,0,0,1,0,6.51,7,7,0,0,1-1.49,2.47,6.5,6.5,0,0,1-2.33,1.58,8.77,8.77,0,0,1-6.12,0,6.57,6.57,0,0,1-2.34-1.58,7,7,0,0,1-1.49-2.47,10.4,10.4,0,0,1,0-6.51,6.9,6.9,0,0,1,1.49-2.46,6.62,6.62,0,0,1,2.34-1.57A8.13,8.13,0,0,1,525,222.93Zm0,13.19a3.55,3.55,0,0,0,3.07-1.38,6.62,6.62,0,0,0,1-4,6.69,6.69,0,0,0-1-4,3.53,3.53,0,0,0-3.07-1.4,3.59,3.59,0,0,0-3.11,1.4,6.66,6.66,0,0,0-1,4,6.59,6.59,0,0,0,1,4A3.6,3.6,0,0,0,525,236.11Z" fill="#e97e24"/><path d="M536.64,238.4V223.17h1.87a1,1,0,0,1,.7.19,1.14,1.14,0,0,1,.27.65l.18,2a6.9,6.9,0,0,1,1.75-2.28,3.73,3.73,0,0,1,2.43-.83,3.67,3.67,0,0,1,.93.11,2.58,2.58,0,0,1,.78.34l-.22,2.42a.6.6,0,0,1-.19.35.54.54,0,0,1-.34.1,3.61,3.61,0,0,1-.64-.08,4.56,4.56,0,0,0-.88-.08,3.41,3.41,0,0,0-1.2.19,2.77,2.77,0,0,0-.93.57,3.93,3.93,0,0,0-.72.91,8.74,8.74,0,0,0-.58,1.22v9.47Z" fill="#e97e24"/><path d="M548.86,238.4V223.17h1.94a.79.79,0,0,1,.84.61l.21,1.33a9.52,9.52,0,0,1,.87-.87,5.63,5.63,0,0,1,1-.69,5,5,0,0,1,1.1-.46,4.76,4.76,0,0,1,1.28-.16,4.16,4.16,0,0,1,1.34.21,3.43,3.43,0,0,1,1.08.6,3.82,3.82,0,0,1,.81.94,5.66,5.66,0,0,1,.57,1.24,4.82,4.82,0,0,1,.87-1.36,4.71,4.71,0,0,1,1.17-.93,5.28,5.28,0,0,1,1.37-.53,6.37,6.37,0,0,1,1.47-.17,5.82,5.82,0,0,1,2.19.39,4.34,4.34,0,0,1,1.63,1.13,4.92,4.92,0,0,1,1,1.81,8.06,8.06,0,0,1,.34,2.45v9.69h-3.21v-9.69a3.66,3.66,0,0,0-.69-2.43,2.55,2.55,0,0,0-2.05-.81,3.14,3.14,0,0,0-1.15.21,2.71,2.71,0,0,0-.94.61,2.83,2.83,0,0,0-.63,1,3.94,3.94,0,0,0-.23,1.41v9.69h-3.21v-9.69a3.72,3.72,0,0,0-.67-2.46,2.45,2.45,0,0,0-2-.78,3.17,3.17,0,0,0-1.66.46,5.38,5.38,0,0,0-1.4,1.25V238.4Z" fill="#e97e24"/><path d="M407.94,296.71c0,2.12,0,4.17,0,6.22A2.48,2.48,0,0,1,403,303c-.07-2.07,0-4.14,0-6.24h-4.46c0,1.94,0,3.86,0,5.79a2.48,2.48,0,0,1-1,2.12,2.37,2.37,0,0,1-2.57.27,2.41,2.41,0,0,1-1.44-2.3c0-2,0-3.91,0-5.92h-1.61a2.63,2.63,0,0,1-2.81-2.81q0-8.82,0-17.63v-.49h23.27c0,.17,0,.34,0,.51q0,8.74,0,17.49a2.67,2.67,0,0,1-2.94,2.93Z" fill="#e97e24"/><path d="M395,265.76,393.17,263c-.17-.26-.32-.52,0-.74s.52,0,.69.29c.56.85,1.14,1.69,1.69,2.55.16.25.29.33.6.23a13.7,13.7,0,0,1,9.17,0,.43.43,0,0,0,.61-.22c.58-.9,1.16-1.79,1.78-2.65a.64.64,0,0,1,.59-.17c.3.12.24.4.07.64l-.19.28-1.7,2.56c3.39,1.77,5.7,4.27,5.92,8.31h-23.3a8.09,8.09,0,0,1,1.72-5A11.13,11.13,0,0,1,395,265.76Zm10.71,5a1.24,1.24,0,0,0,1.27-1.22,1.26,1.26,0,0,0-1.23-1.26,1.24,1.24,0,0,0-1.25,1.23A1.22,1.22,0,0,0,405.72,270.75ZM397,269.54a1.24,1.24,0,0,0-1.22-1.27,1.27,1.27,0,0,0-1.27,1.22,1.24,1.24,0,0,0,1.23,1.26A1.22,1.22,0,0,0,397,269.54Z" fill="#e97e24"/><path d="M419,283.61c0,1.8,0,3.6,0,5.39a2.48,2.48,0,0,1-4.73,1,2.86,2.86,0,0,1-.23-1.11q0-5.27,0-10.55a2.49,2.49,0,1,1,5,0c0,1.77,0,3.53,0,5.3Z" fill="#e97e24"/><path d="M387.41,283.6c0,1.81,0,3.63,0,5.44a2.47,2.47,0,0,1-4.6,1.16,2.8,2.8,0,0,1-.36-1.26c0-3.56,0-7.13,0-10.69a2.49,2.49,0,0,1,5,0c0,1.78,0,3.56,0,5.35Z" fill="#e97e24"/><path d="M470.74,277.61l-.17.11a10,10,0,0,0-3.9,4.81,8.88,8.88,0,0,0-.56,3.08A9.56,9.56,0,0,0,467,290a9.46,9.46,0,0,0,3.55,3.89c.4.25.83.47,1.27.71l0,.15a23.64,23.64,0,0,1-2.82,5.81,31.37,31.37,0,0,1-1.94,2.67,10.77,10.77,0,0,1-1.48,1.5,5.65,5.65,0,0,1-2.18,1.14,5.4,5.4,0,0,1-1.89.11,7.22,7.22,0,0,1-2.05-.57c-.54-.23-1.07-.46-1.62-.66a7.78,7.78,0,0,0-3.35-.41,9,9,0,0,0-2.82.74c-.52.22-1,.44-1.58.63a6.12,6.12,0,0,1-1.94.36,4.14,4.14,0,0,1-1.89-.41,7.1,7.1,0,0,1-1.91-1.36,16.76,16.76,0,0,1-1.83-2.13,29.13,29.13,0,0,1-2.5-3.87,28.16,28.16,0,0,1-2.71-7.79,22,22,0,0,1-.4-4.88,14.86,14.86,0,0,1,1.31-5.82,11,11,0,0,1,4.34-4.89,10.2,10.2,0,0,1,3.88-1.36,8.13,8.13,0,0,1,3.93.42c.78.28,1.54.59,2.31.87.4.14.8.27,1.2.39a2.84,2.84,0,0,0,1.63,0c.64-.18,1.25-.43,1.87-.68a22.39,22.39,0,0,1,2.53-.87,8.82,8.82,0,0,1,2.46-.32,10.92,10.92,0,0,1,5.18,1.35,9.44,9.44,0,0,1,3.12,2.83Z" fill="#e97e24"/><path d="M462.94,262.91c0,.23,0,.44,0,.65a8.79,8.79,0,0,1-.7,3.59,9.64,9.64,0,0,1-3.16,4.14,8,8,0,0,1-3.06,1.43,6,6,0,0,1-1.49.14h-.17l-.08,0a4.73,4.73,0,0,1-.06-.9,8.18,8.18,0,0,1,.78-3.32,9.72,9.72,0,0,1,6.23-5.43,6.73,6.73,0,0,1,1.52-.28Z" fill="#e97e24"/><path d="M138.4,280.36h3.74a1.49,1.49,0,0,1,.86.24,1.16,1.16,0,0,1,.47.61l2.16,8.68q.19.83.35,1.62t.28,1.55q.2-.77.44-1.55l.49-1.62,2.57-8.71a1.17,1.17,0,0,1,.46-.59,1.36,1.36,0,0,1,.8-.24h2.08a1.45,1.45,0,0,1,.84.24,1.16,1.16,0,0,1,.47.59l2.48,8.71.46,1.62q.22.78.41,1.56.14-.76.3-1.56t.38-1.62l2.26-8.68a1.17,1.17,0,0,1,.46-.61,1.36,1.36,0,0,1,.8-.24h3.57L160,297.9h-3.79a.8.8,0,0,1-.52-.19,1.18,1.18,0,0,1-.35-.63l-2.86-9.49c-.11-.36-.22-.72-.31-1.07s-.17-.71-.24-1.07q-.1.54-.23,1.09t-.3,1.09l-2.89,9.46a1,1,0,0,1-1,.82h-3.61Z" fill="#e97e24"/><path d="M176.65,280.08a9.81,9.81,0,0,1,3.59.63,7.73,7.73,0,0,1,4.56,4.63,11.57,11.57,0,0,1,0,7.53,8,8,0,0,1-1.79,2.85,7.84,7.84,0,0,1-2.77,1.8,9.83,9.83,0,0,1-3.59.63,9.94,9.94,0,0,1-3.61-.63,7.82,7.82,0,0,1-2.78-1.8,8.1,8.1,0,0,1-1.79-2.85,11.43,11.43,0,0,1,0-7.53,8,8,0,0,1,1.79-2.83,7.86,7.86,0,0,1,2.78-1.79A9.92,9.92,0,0,1,176.65,280.08Zm0,14.55a3.39,3.39,0,0,0,3-1.39,9.22,9.22,0,0,0,0-8.23,3.39,3.39,0,0,0-3-1.39,3.44,3.44,0,0,0-3,1.39,9.22,9.22,0,0,0,0,8.23A3.44,3.44,0,0,0,176.65,294.63Z" fill="#e97e24"/><path d="M197.66,280.08a9.81,9.81,0,0,1,3.59.63,7.73,7.73,0,0,1,4.56,4.63,11.57,11.57,0,0,1,0,7.53,8,8,0,0,1-1.79,2.85,7.84,7.84,0,0,1-2.77,1.8,9.83,9.83,0,0,1-3.59.63,9.94,9.94,0,0,1-3.61-.63,7.82,7.82,0,0,1-2.78-1.8,8.1,8.1,0,0,1-1.79-2.85,11.43,11.43,0,0,1,0-7.53,8,8,0,0,1,1.79-2.83,7.86,7.86,0,0,1,2.78-1.79A9.92,9.92,0,0,1,197.66,280.08Zm0,14.55a3.39,3.39,0,0,0,3-1.39,9.22,9.22,0,0,0,0-8.23,3.39,3.39,0,0,0-3-1.39,3.44,3.44,0,0,0-3,1.39,9.22,9.22,0,0,0,0,8.23A3.44,3.44,0,0,0,197.66,294.63Z" fill="#e97e24"/><path d="M210.76,297.9V272.53h4.7v9.56a8.66,8.66,0,0,1,2.16-1.45,6.49,6.49,0,0,1,2.79-.55,6.16,6.16,0,0,1,2.54.49A5.21,5.21,0,0,1,224.8,282a5.91,5.91,0,0,1,1.14,2.11,9,9,0,0,1,.38,2.69V297.9h-4.68V286.75a3.42,3.42,0,0,0-.68-2.27,2.48,2.48,0,0,0-2-.81,4.07,4.07,0,0,0-1.86.43,6.86,6.86,0,0,0-1.64,1.18V297.9Z" fill="#e97e24"/><path d="M239.32,280.08a9.81,9.81,0,0,1,3.59.63,7.73,7.73,0,0,1,4.56,4.63,11.57,11.57,0,0,1,0,7.53,8,8,0,0,1-1.79,2.85,7.84,7.84,0,0,1-2.77,1.8,9.83,9.83,0,0,1-3.59.63,9.94,9.94,0,0,1-3.61-.63,7.82,7.82,0,0,1-2.78-1.8,8.1,8.1,0,0,1-1.79-2.85,11.43,11.43,0,0,1,0-7.53,8,8,0,0,1,1.79-2.83,7.86,7.86,0,0,1,2.78-1.79A9.92,9.92,0,0,1,239.32,280.08Zm0,14.55a3.39,3.39,0,0,0,3-1.39,9.22,9.22,0,0,0,0-8.23,3.39,3.39,0,0,0-3-1.39,3.44,3.44,0,0,0-3,1.39,9.22,9.22,0,0,0,0,8.23A3.44,3.44,0,0,0,239.32,294.63Z" fill="#e97e24"/><path d="M260.33,280.08a9.81,9.81,0,0,1,3.59.63,7.73,7.73,0,0,1,4.56,4.63,11.57,11.57,0,0,1,0,7.53,8,8,0,0,1-1.79,2.85,7.84,7.84,0,0,1-2.77,1.8,9.83,9.83,0,0,1-3.59.63,9.94,9.94,0,0,1-3.61-.63,7.82,7.82,0,0,1-2.78-1.8,8.1,8.1,0,0,1-1.79-2.85,11.43,11.43,0,0,1,0-7.53,8,8,0,0,1,1.79-2.83,7.86,7.86,0,0,1,2.78-1.79A9.92,9.92,0,0,1,260.33,280.08Zm0,14.55a3.39,3.39,0,0,0,3-1.39,9.22,9.22,0,0,0,0-8.23,3.39,3.39,0,0,0-3-1.39,3.44,3.44,0,0,0-3,1.39,9.22,9.22,0,0,0,0,8.23A3.44,3.44,0,0,0,260.33,294.63Z" fill="#e97e24"/><path d="M272.77,295.43a2.69,2.69,0,0,1,.21-1.06,2.63,2.63,0,0,1,.59-.87,2.85,2.85,0,0,1,3.95,0,2.65,2.65,0,0,1,.59.87,2.7,2.7,0,0,1,.21,1.06,2.65,2.65,0,0,1-1.68,2.5,3,3,0,0,1-2.19,0,2.69,2.69,0,0,1-.88-.57,2.66,2.66,0,0,1-.8-1.93Z" fill="#e97e24"/><path d="M288.28,275.37a2.58,2.58,0,0,1-.24,1.11,3.06,3.06,0,0,1-.64.9,2.9,2.9,0,0,1-.94.61,3,3,0,0,1-1.15.22,2.77,2.77,0,0,1-1.1-.22,2.84,2.84,0,0,1-.91-.61,3,3,0,0,1-.62-.9,2.67,2.67,0,0,1-.23-1.11,2.72,2.72,0,0,1,.23-1.11,3,3,0,0,1,.62-.91,2.86,2.86,0,0,1,.91-.61,2.77,2.77,0,0,1,1.1-.22,3,3,0,0,1,1.15.22,2.91,2.91,0,0,1,.94.61,3,3,0,0,1,.64.91A2.64,2.64,0,0,1,288.28,275.37Zm-.56,5V297.9H283V280.36Z" fill="#e97e24"/><path d="M293.1,297.9V280.36H296a1.14,1.14,0,0,1,1.17.82l.29,1.23a11.24,11.24,0,0,1,1.1-.94,7.29,7.29,0,0,1,1.21-.73,6.57,6.57,0,0,1,1.38-.48,7.18,7.18,0,0,1,1.61-.17,6.16,6.16,0,0,1,2.54.49,5.21,5.21,0,0,1,1.86,1.38,5.91,5.91,0,0,1,1.14,2.11,9,9,0,0,1,.38,2.69V297.9H304V286.75a3.42,3.42,0,0,0-.68-2.27,2.48,2.48,0,0,0-2-.81,4.07,4.07,0,0,0-1.86.43,6.86,6.86,0,0,0-1.64,1.18V297.9Z" fill="#e97e24"/><rect x="344.06" y="262.91" width="1.93" height="45.15" fill="#e97e24"/></svg>